G04*
G04 #@! TF.GenerationSoftware,Altium Limited,Altium Designer,23.9.2 (47)*
G04*
G04 Layer_Color=32896*
%FSLAX44Y44*%
%MOMM*%
G71*
G04*
G04 #@! TF.SameCoordinates,310188B4-8CF0-41BA-AE5F-CC01156B6892*
G04*
G04*
G04 #@! TF.FilePolarity,Positive*
G04*
G01*
G75*
%ADD11C,0.4000*%
%ADD14C,0.2540*%
D11*
X618631Y123500D02*
G03*
X618631Y123500I-43631J0D01*
G01*
X408631D02*
G03*
X408631Y123500I-43631J0D01*
G01*
X208631D02*
G03*
X208631Y123500I-43631J0D01*
G01*
X818631D02*
G03*
X818631Y123500I-43631J0D01*
G01*
D14*
X412537Y81000D02*
G03*
X412537Y81000I-23537J0D01*
G01*
X365537D02*
G03*
X365537Y81000I-23537J0D01*
G01*
X607855Y191929D02*
X612934D01*
X610395D01*
Y179233D01*
X612934Y176694D01*
X615473D01*
X618012Y179233D01*
X602777Y189390D02*
X600238Y191929D01*
X595159D01*
X592620Y189390D01*
Y186851D01*
X595159Y184312D01*
X597699D01*
X595159D01*
X592620Y181772D01*
Y179233D01*
X595159Y176694D01*
X600238D01*
X602777Y179233D01*
X808007Y191929D02*
X813086D01*
X810546D01*
Y179233D01*
X813086Y176694D01*
X815625D01*
X818164Y179233D01*
X795311Y176694D02*
Y191929D01*
X802929Y184312D01*
X792772D01*
X398051Y191929D02*
X403130D01*
X400591D01*
Y179233D01*
X403130Y176694D01*
X405669D01*
X408208Y179233D01*
X382816Y176694D02*
X392973D01*
X382816Y186851D01*
Y189390D01*
X385355Y191929D01*
X390434D01*
X392973Y189390D01*
X197899Y191929D02*
X202978D01*
X200438D01*
Y179233D01*
X202978Y176694D01*
X205517D01*
X208056Y179233D01*
X192821Y176694D02*
X187743D01*
X190282D01*
Y191929D01*
X192821Y189390D01*
M02*
