G04*
G04 #@! TF.GenerationSoftware,Altium Limited,Altium Designer,23.9.2 (47)*
G04*
G04 Layer_Color=32896*
%FSLAX44Y44*%
%MOMM*%
G71*
G04*
G04 #@! TF.SameCoordinates,72E88F02-2F4C-440F-9558-A7C5ECE0CFCD*
G04*
G04*
G04 #@! TF.FilePolarity,Positive*
G04*
G01*
G75*
%ADD11C,0.4000*%
%ADD14C,0.2540*%
D11*
X613631Y123500D02*
G03*
X613631Y123500I-43631J0D01*
G01*
X423631D02*
G03*
X423631Y123500I-43631J0D01*
G01*
X233631D02*
G03*
X233631Y123500I-43631J0D01*
G01*
X803631D02*
G03*
X803631Y123500I-43631J0D01*
G01*
D14*
X603029Y191929D02*
X608108D01*
X605569D01*
Y179233D01*
X608108Y176694D01*
X610647D01*
X613186Y179233D01*
X597951Y189390D02*
X595412Y191929D01*
X590333D01*
X587794Y189390D01*
Y186851D01*
X590333Y184312D01*
X592873D01*
X590333D01*
X587794Y181772D01*
Y179233D01*
X590333Y176694D01*
X595412D01*
X597951Y179233D01*
X793021Y191929D02*
X798100D01*
X795561D01*
Y179233D01*
X798100Y176694D01*
X800639D01*
X803178Y179233D01*
X780325Y176694D02*
Y191929D01*
X787943Y184312D01*
X777786D01*
X413037Y191929D02*
X418116D01*
X415577D01*
Y179233D01*
X418116Y176694D01*
X420655D01*
X423194Y179233D01*
X397802Y176694D02*
X407959D01*
X397802Y186851D01*
Y189390D01*
X400341Y191929D01*
X405420D01*
X407959Y189390D01*
X223045Y191929D02*
X228124D01*
X225585D01*
Y179233D01*
X228124Y176694D01*
X230663D01*
X233202Y179233D01*
X217967Y176694D02*
X212889D01*
X215428D01*
Y191929D01*
X217967Y189390D01*
M02*
