G04*
G04 #@! TF.GenerationSoftware,Altium Limited,Altium Designer,23.9.2 (47)*
G04*
G04 Layer_Physical_Order=2*
G04 Layer_Color=16711680*
%FSLAX44Y44*%
%MOMM*%
G71*
G04*
G04 #@! TF.SameCoordinates,24CFAE77-2270-4C4A-AE4D-80AC2D70FD93*
G04*
G04*
G04 #@! TF.FilePolarity,Positive*
G04*
G01*
G75*
%ADD15C,0.5000*%
%ADD21C,7.0500*%
%ADD22C,0.6000*%
G36*
X833582Y241017D02*
X833582Y241017D01*
X833582Y241017D01*
X838613Y240798D01*
X848600Y239509D01*
X858443Y237377D01*
X868070Y234420D01*
X877411Y230657D01*
X884892Y226878D01*
X884590Y225608D01*
X849239D01*
X848712Y226878D01*
X849697Y227862D01*
X850470Y229730D01*
X839530D01*
X840303Y227862D01*
X841288Y226878D01*
X840761Y225608D01*
X165000Y225608D01*
X164686D01*
X162540Y225181D01*
X160721Y223965D01*
X101391Y164636D01*
X100444Y164243D01*
X98757Y162556D01*
X97843Y160350D01*
Y157963D01*
X98757Y155758D01*
X100444Y154070D01*
X100955Y153859D01*
X101433Y152286D01*
X100819Y151369D01*
X100392Y149222D01*
Y138140D01*
X100000Y137193D01*
Y134806D01*
X100913Y132601D01*
X102601Y130913D01*
X103708Y130455D01*
X104006Y128957D01*
X103538Y128489D01*
X102591Y128097D01*
X100903Y126409D01*
X99990Y124204D01*
Y121817D01*
X100903Y119612D01*
X102591Y117924D01*
X103247Y117652D01*
X103154Y116316D01*
X102601Y116087D01*
X100913Y114399D01*
X100000Y112193D01*
Y109806D01*
X100913Y107601D01*
X102601Y105913D01*
X104806Y105000D01*
X107193D01*
X109399Y105913D01*
X111087Y107601D01*
X111479Y108548D01*
X115660Y112730D01*
X116573Y111868D01*
X115800Y110000D01*
X120000D01*
Y114200D01*
X118132Y113427D01*
X117270Y114340D01*
X125940Y123010D01*
X127210Y122483D01*
Y120526D01*
X128140Y114651D01*
X129979Y108994D01*
X132679Y103694D01*
X136175Y98882D01*
X140381Y94675D01*
X145194Y91179D01*
X150494Y88479D01*
X156151Y86641D01*
X162026Y85710D01*
X163730D01*
Y123500D01*
Y161290D01*
X162026D01*
X156151Y160359D01*
X150494Y158521D01*
X145194Y155821D01*
X144311Y155180D01*
X143484Y156149D01*
X163190Y175855D01*
X164460Y175329D01*
Y173898D01*
X165303Y171862D01*
X166862Y170303D01*
X168730Y169530D01*
Y175000D01*
X170000D01*
Y176270D01*
X175470D01*
X174697Y178138D01*
X173138Y179697D01*
X171102Y180540D01*
X169671D01*
X169145Y181810D01*
X177728Y190392D01*
X874363Y190392D01*
X883392Y181364D01*
Y127000D01*
X883819Y124854D01*
X885035Y123035D01*
X901535Y106535D01*
X903354Y105319D01*
X904666Y105058D01*
X904807Y105000D01*
X904958D01*
X905500Y104892D01*
X906042Y105000D01*
X907194D01*
X909399Y105913D01*
X911087Y107601D01*
X912000Y109806D01*
Y112193D01*
X911087Y114399D01*
X909399Y116087D01*
X907612Y116827D01*
Y118173D01*
X909399Y118913D01*
X911087Y120601D01*
X912000Y122807D01*
Y125194D01*
X911087Y127399D01*
X909399Y129087D01*
X908846Y129316D01*
X908753Y130652D01*
X909409Y130924D01*
X911097Y132612D01*
X912010Y134817D01*
Y137204D01*
X911608Y138176D01*
Y155435D01*
X912878Y155688D01*
X912913Y155601D01*
X914601Y153913D01*
X916806Y153000D01*
X919193D01*
X921399Y153913D01*
X923086Y155601D01*
X924000Y157807D01*
Y160194D01*
X923608Y161140D01*
Y169926D01*
X924878Y170179D01*
X925030Y169810D01*
X926589Y168252D01*
X928457Y167478D01*
Y172948D01*
Y178419D01*
X926589Y177645D01*
X925030Y176086D01*
X924878Y175718D01*
X923608Y175970D01*
Y189000D01*
X923181Y191146D01*
X921965Y192965D01*
X897707Y217224D01*
X898538Y218188D01*
X903065Y214836D01*
X910621Y208178D01*
X917585Y200903D01*
X923908Y193065D01*
X929544Y184719D01*
X932683Y179095D01*
X931789Y178090D01*
X930997Y178419D01*
Y172948D01*
Y167478D01*
X932865Y168252D01*
X934424Y169810D01*
X935092Y171423D01*
X936440Y171523D01*
X938597Y166747D01*
X941950Y157251D01*
X944486Y147505D01*
X946187Y137578D01*
X947040Y127544D01*
Y117473D01*
X946187Y107439D01*
X944486Y97513D01*
X941950Y87766D01*
X938597Y78270D01*
X934452Y69092D01*
X929544Y60298D01*
X923908Y51952D01*
X917585Y44114D01*
X910621Y36839D01*
X903065Y30181D01*
X894972Y24187D01*
X886400Y18901D01*
X877411Y14360D01*
X868070Y10597D01*
X858443Y7640D01*
X848600Y5508D01*
X838613Y4219D01*
X833582Y4000D01*
X122418D01*
X117372Y3998D01*
X107317Y4850D01*
X97371Y6553D01*
X87604Y9093D01*
X78089Y12453D01*
X68892Y16608D01*
X60082Y21529D01*
X51721Y27179D01*
X43869Y33518D01*
X36584Y40501D01*
X29917Y48077D01*
X23918Y56191D01*
X18628Y64784D01*
X14087Y73796D01*
X10326Y83161D01*
X7374Y92810D01*
X5251Y102676D01*
X3973Y112686D01*
X3549Y122768D01*
X3982Y132850D01*
X5269Y142859D01*
X7400Y152723D01*
X10361Y162370D01*
X14129Y171731D01*
X18679Y180739D01*
X23976Y189328D01*
X29983Y197437D01*
X36656Y205007D01*
X43947Y211983D01*
X51804Y218316D01*
X60170Y223958D01*
X68985Y228871D01*
X78185Y233018D01*
X87703Y236370D01*
X97472Y238902D01*
X107420Y240595D01*
X112448Y241017D01*
X833582Y241017D01*
D02*
G37*
%LPC*%
G36*
X816270Y239470D02*
Y235270D01*
X820470D01*
X819697Y237138D01*
X818138Y238697D01*
X816270Y239470D01*
D02*
G37*
G36*
X813730D02*
X811862Y238697D01*
X810303Y237138D01*
X809530Y235270D01*
X813730D01*
Y239470D01*
D02*
G37*
G36*
X786270D02*
Y235270D01*
X790470D01*
X789697Y237138D01*
X788138Y238697D01*
X786270Y239470D01*
D02*
G37*
G36*
X783730D02*
X781862Y238697D01*
X780303Y237138D01*
X779530Y235270D01*
X783730D01*
Y239470D01*
D02*
G37*
G36*
X756270D02*
Y235270D01*
X760470D01*
X759697Y237138D01*
X758138Y238697D01*
X756270Y239470D01*
D02*
G37*
G36*
X753730D02*
X751862Y238697D01*
X750303Y237138D01*
X749530Y235270D01*
X753730D01*
Y239470D01*
D02*
G37*
G36*
X726270D02*
Y235270D01*
X730470D01*
X729697Y237138D01*
X728138Y238697D01*
X726270Y239470D01*
D02*
G37*
G36*
X723730D02*
X721862Y238697D01*
X720303Y237138D01*
X719530Y235270D01*
X723730D01*
Y239470D01*
D02*
G37*
G36*
X696270D02*
Y235270D01*
X700470D01*
X699697Y237138D01*
X698138Y238697D01*
X696270Y239470D01*
D02*
G37*
G36*
X693730D02*
X691862Y238697D01*
X690303Y237138D01*
X689530Y235270D01*
X693730D01*
Y239470D01*
D02*
G37*
G36*
X666270D02*
Y235270D01*
X670470D01*
X669697Y237138D01*
X668138Y238697D01*
X666270Y239470D01*
D02*
G37*
G36*
X663730D02*
X661862Y238697D01*
X660303Y237138D01*
X659530Y235270D01*
X663730D01*
Y239470D01*
D02*
G37*
G36*
X636270D02*
Y235270D01*
X640470D01*
X639697Y237138D01*
X638138Y238697D01*
X636270Y239470D01*
D02*
G37*
G36*
X633730D02*
X631862Y238697D01*
X630303Y237138D01*
X629530Y235270D01*
X633730D01*
Y239470D01*
D02*
G37*
G36*
X606270D02*
Y235270D01*
X610470D01*
X609697Y237138D01*
X608138Y238697D01*
X606270Y239470D01*
D02*
G37*
G36*
X603730D02*
X601862Y238697D01*
X600303Y237138D01*
X599530Y235270D01*
X603730D01*
Y239470D01*
D02*
G37*
G36*
X576270D02*
Y235270D01*
X580470D01*
X579697Y237138D01*
X578138Y238697D01*
X576270Y239470D01*
D02*
G37*
G36*
X573730D02*
X571862Y238697D01*
X570303Y237138D01*
X569530Y235270D01*
X573730D01*
Y239470D01*
D02*
G37*
G36*
X546270D02*
Y235270D01*
X550470D01*
X549697Y237138D01*
X548138Y238697D01*
X546270Y239470D01*
D02*
G37*
G36*
X543730D02*
X541862Y238697D01*
X540303Y237138D01*
X539530Y235270D01*
X543730D01*
Y239470D01*
D02*
G37*
G36*
X516270D02*
Y235270D01*
X520470D01*
X519697Y237138D01*
X518138Y238697D01*
X516270Y239470D01*
D02*
G37*
G36*
X513730D02*
X511862Y238697D01*
X510303Y237138D01*
X509530Y235270D01*
X513730D01*
Y239470D01*
D02*
G37*
G36*
X486270D02*
Y235270D01*
X490470D01*
X489697Y237138D01*
X488138Y238697D01*
X486270Y239470D01*
D02*
G37*
G36*
X483730D02*
X481862Y238697D01*
X480303Y237138D01*
X479530Y235270D01*
X483730D01*
Y239470D01*
D02*
G37*
G36*
X456270D02*
Y235270D01*
X460470D01*
X459697Y237138D01*
X458138Y238697D01*
X456270Y239470D01*
D02*
G37*
G36*
X453730D02*
X451862Y238697D01*
X450303Y237138D01*
X449530Y235270D01*
X453730D01*
Y239470D01*
D02*
G37*
G36*
X426270D02*
Y235270D01*
X430470D01*
X429697Y237138D01*
X428138Y238697D01*
X426270Y239470D01*
D02*
G37*
G36*
X423730D02*
X421862Y238697D01*
X420303Y237138D01*
X419530Y235270D01*
X423730D01*
Y239470D01*
D02*
G37*
G36*
X396270D02*
Y235270D01*
X400470D01*
X399697Y237138D01*
X398138Y238697D01*
X396270Y239470D01*
D02*
G37*
G36*
X393730D02*
X391862Y238697D01*
X390303Y237138D01*
X389530Y235270D01*
X393730D01*
Y239470D01*
D02*
G37*
G36*
X366270D02*
Y235270D01*
X370470D01*
X369697Y237138D01*
X368138Y238697D01*
X366270Y239470D01*
D02*
G37*
G36*
X363730D02*
X361862Y238697D01*
X360303Y237138D01*
X359530Y235270D01*
X363730D01*
Y239470D01*
D02*
G37*
G36*
X336270D02*
Y235270D01*
X340470D01*
X339697Y237138D01*
X338138Y238697D01*
X336270Y239470D01*
D02*
G37*
G36*
X333730D02*
X331862Y238697D01*
X330303Y237138D01*
X329530Y235270D01*
X333730D01*
Y239470D01*
D02*
G37*
G36*
X306270D02*
Y235270D01*
X310470D01*
X309697Y237138D01*
X308138Y238697D01*
X306270Y239470D01*
D02*
G37*
G36*
X303730D02*
X301862Y238697D01*
X300303Y237138D01*
X299530Y235270D01*
X303730D01*
Y239470D01*
D02*
G37*
G36*
X276270D02*
Y235270D01*
X280470D01*
X279697Y237138D01*
X278138Y238697D01*
X276270Y239470D01*
D02*
G37*
G36*
X273730D02*
X271862Y238697D01*
X270303Y237138D01*
X269530Y235270D01*
X273730D01*
Y239470D01*
D02*
G37*
G36*
X246270D02*
Y235270D01*
X250470D01*
X249697Y237138D01*
X248138Y238697D01*
X246270Y239470D01*
D02*
G37*
G36*
X243730D02*
X241862Y238697D01*
X240303Y237138D01*
X239530Y235270D01*
X243730D01*
Y239470D01*
D02*
G37*
G36*
X216270D02*
Y235270D01*
X220470D01*
X219697Y237138D01*
X218138Y238697D01*
X216270Y239470D01*
D02*
G37*
G36*
X213730D02*
X211862Y238697D01*
X210303Y237138D01*
X209530Y235270D01*
X213730D01*
Y239470D01*
D02*
G37*
G36*
X186270D02*
Y235270D01*
X190470D01*
X189697Y237138D01*
X188138Y238697D01*
X186270Y239470D01*
D02*
G37*
G36*
X183730D02*
X181862Y238697D01*
X180303Y237138D01*
X179530Y235270D01*
X183730D01*
Y239470D01*
D02*
G37*
G36*
X156270D02*
Y235270D01*
X160470D01*
X159697Y237138D01*
X158138Y238697D01*
X156270Y239470D01*
D02*
G37*
G36*
X153730D02*
X151862Y238697D01*
X150303Y237138D01*
X149530Y235270D01*
X153730D01*
Y239470D01*
D02*
G37*
G36*
X126270D02*
Y235270D01*
X130470D01*
X129697Y237138D01*
X128138Y238697D01*
X126270Y239470D01*
D02*
G37*
G36*
X123730D02*
X121862Y238697D01*
X120303Y237138D01*
X119530Y235270D01*
X123730D01*
Y239470D01*
D02*
G37*
G36*
X846270Y236470D02*
Y232270D01*
X850470D01*
X849697Y234138D01*
X848138Y235697D01*
X846270Y236470D01*
D02*
G37*
G36*
X843730D02*
X841862Y235697D01*
X840303Y234138D01*
X839530Y232270D01*
X843730D01*
Y236470D01*
D02*
G37*
G36*
X96270Y235470D02*
Y231270D01*
X100470D01*
X99697Y233138D01*
X98138Y234697D01*
X96270Y235470D01*
D02*
G37*
G36*
X93730D02*
X91862Y234697D01*
X90303Y233138D01*
X89530Y231270D01*
X93730D01*
Y235470D01*
D02*
G37*
G36*
X820470Y232730D02*
X816270D01*
Y228530D01*
X818138Y229303D01*
X819697Y230862D01*
X820470Y232730D01*
D02*
G37*
G36*
X813730D02*
X809530D01*
X810303Y230862D01*
X811862Y229303D01*
X813730Y228530D01*
Y232730D01*
D02*
G37*
G36*
X790470D02*
X786270D01*
Y228530D01*
X788138Y229303D01*
X789697Y230862D01*
X790470Y232730D01*
D02*
G37*
G36*
X783730D02*
X779530D01*
X780303Y230862D01*
X781862Y229303D01*
X783730Y228530D01*
Y232730D01*
D02*
G37*
G36*
X760470D02*
X756270D01*
Y228530D01*
X758138Y229303D01*
X759697Y230862D01*
X760470Y232730D01*
D02*
G37*
G36*
X753730D02*
X749530D01*
X750303Y230862D01*
X751862Y229303D01*
X753730Y228530D01*
Y232730D01*
D02*
G37*
G36*
X730470D02*
X726270D01*
Y228530D01*
X728138Y229303D01*
X729697Y230862D01*
X730470Y232730D01*
D02*
G37*
G36*
X723730D02*
X719530D01*
X720303Y230862D01*
X721862Y229303D01*
X723730Y228530D01*
Y232730D01*
D02*
G37*
G36*
X700470D02*
X696270D01*
Y228530D01*
X698138Y229303D01*
X699697Y230862D01*
X700470Y232730D01*
D02*
G37*
G36*
X693730D02*
X689530D01*
X690303Y230862D01*
X691862Y229303D01*
X693730Y228530D01*
Y232730D01*
D02*
G37*
G36*
X670470D02*
X666270D01*
Y228530D01*
X668138Y229303D01*
X669697Y230862D01*
X670470Y232730D01*
D02*
G37*
G36*
X663730D02*
X659530D01*
X660303Y230862D01*
X661862Y229303D01*
X663730Y228530D01*
Y232730D01*
D02*
G37*
G36*
X640470D02*
X636270D01*
Y228530D01*
X638138Y229303D01*
X639697Y230862D01*
X640470Y232730D01*
D02*
G37*
G36*
X633730D02*
X629530D01*
X630303Y230862D01*
X631862Y229303D01*
X633730Y228530D01*
Y232730D01*
D02*
G37*
G36*
X610470D02*
X606270D01*
Y228530D01*
X608138Y229303D01*
X609697Y230862D01*
X610470Y232730D01*
D02*
G37*
G36*
X603730D02*
X599530D01*
X600303Y230862D01*
X601862Y229303D01*
X603730Y228530D01*
Y232730D01*
D02*
G37*
G36*
X580470D02*
X576270D01*
Y228530D01*
X578138Y229303D01*
X579697Y230862D01*
X580470Y232730D01*
D02*
G37*
G36*
X573730D02*
X569530D01*
X570303Y230862D01*
X571862Y229303D01*
X573730Y228530D01*
Y232730D01*
D02*
G37*
G36*
X550470D02*
X546270D01*
Y228530D01*
X548138Y229303D01*
X549697Y230862D01*
X550470Y232730D01*
D02*
G37*
G36*
X543730D02*
X539530D01*
X540303Y230862D01*
X541862Y229303D01*
X543730Y228530D01*
Y232730D01*
D02*
G37*
G36*
X520470D02*
X516270D01*
Y228530D01*
X518138Y229303D01*
X519697Y230862D01*
X520470Y232730D01*
D02*
G37*
G36*
X513730D02*
X509530D01*
X510303Y230862D01*
X511862Y229303D01*
X513730Y228530D01*
Y232730D01*
D02*
G37*
G36*
X490470D02*
X486270D01*
Y228530D01*
X488138Y229303D01*
X489697Y230862D01*
X490470Y232730D01*
D02*
G37*
G36*
X483730D02*
X479530D01*
X480303Y230862D01*
X481862Y229303D01*
X483730Y228530D01*
Y232730D01*
D02*
G37*
G36*
X460470D02*
X456270D01*
Y228530D01*
X458138Y229303D01*
X459697Y230862D01*
X460470Y232730D01*
D02*
G37*
G36*
X453730D02*
X449530D01*
X450303Y230862D01*
X451862Y229303D01*
X453730Y228530D01*
Y232730D01*
D02*
G37*
G36*
X430470D02*
X426270D01*
Y228530D01*
X428138Y229303D01*
X429697Y230862D01*
X430470Y232730D01*
D02*
G37*
G36*
X423730D02*
X419530D01*
X420303Y230862D01*
X421862Y229303D01*
X423730Y228530D01*
Y232730D01*
D02*
G37*
G36*
X400470D02*
X396270D01*
Y228530D01*
X398138Y229303D01*
X399697Y230862D01*
X400470Y232730D01*
D02*
G37*
G36*
X393730D02*
X389530D01*
X390303Y230862D01*
X391862Y229303D01*
X393730Y228530D01*
Y232730D01*
D02*
G37*
G36*
X370470D02*
X366270D01*
Y228530D01*
X368138Y229303D01*
X369697Y230862D01*
X370470Y232730D01*
D02*
G37*
G36*
X363730D02*
X359530D01*
X360303Y230862D01*
X361862Y229303D01*
X363730Y228530D01*
Y232730D01*
D02*
G37*
G36*
X340470D02*
X336270D01*
Y228530D01*
X338138Y229303D01*
X339697Y230862D01*
X340470Y232730D01*
D02*
G37*
G36*
X333730D02*
X329530D01*
X330303Y230862D01*
X331862Y229303D01*
X333730Y228530D01*
Y232730D01*
D02*
G37*
G36*
X310470D02*
X306270D01*
Y228530D01*
X308138Y229303D01*
X309697Y230862D01*
X310470Y232730D01*
D02*
G37*
G36*
X303730D02*
X299530D01*
X300303Y230862D01*
X301862Y229303D01*
X303730Y228530D01*
Y232730D01*
D02*
G37*
G36*
X280470D02*
X276270D01*
Y228530D01*
X278138Y229303D01*
X279697Y230862D01*
X280470Y232730D01*
D02*
G37*
G36*
X273730D02*
X269530D01*
X270303Y230862D01*
X271862Y229303D01*
X273730Y228530D01*
Y232730D01*
D02*
G37*
G36*
X250470D02*
X246270D01*
Y228530D01*
X248138Y229303D01*
X249697Y230862D01*
X250470Y232730D01*
D02*
G37*
G36*
X243730D02*
X239530D01*
X240303Y230862D01*
X241862Y229303D01*
X243730Y228530D01*
Y232730D01*
D02*
G37*
G36*
X220470D02*
X216270D01*
Y228530D01*
X218138Y229303D01*
X219697Y230862D01*
X220470Y232730D01*
D02*
G37*
G36*
X213730D02*
X209530D01*
X210303Y230862D01*
X211862Y229303D01*
X213730Y228530D01*
Y232730D01*
D02*
G37*
G36*
X190470D02*
X186270D01*
Y228530D01*
X188138Y229303D01*
X189697Y230862D01*
X190470Y232730D01*
D02*
G37*
G36*
X183730D02*
X179530D01*
X180303Y230862D01*
X181862Y229303D01*
X183730Y228530D01*
Y232730D01*
D02*
G37*
G36*
X160470D02*
X156270D01*
Y228530D01*
X158138Y229303D01*
X159697Y230862D01*
X160470Y232730D01*
D02*
G37*
G36*
X153730D02*
X149530D01*
X150303Y230862D01*
X151862Y229303D01*
X153730Y228530D01*
Y232730D01*
D02*
G37*
G36*
X130470D02*
X126270D01*
Y228530D01*
X128138Y229303D01*
X129697Y230862D01*
X130470Y232730D01*
D02*
G37*
G36*
X123730D02*
X119530D01*
X120303Y230862D01*
X121862Y229303D01*
X123730Y228530D01*
Y232730D01*
D02*
G37*
G36*
X100470Y228730D02*
X96270D01*
Y224530D01*
X98138Y225303D01*
X99697Y226862D01*
X100470Y228730D01*
D02*
G37*
G36*
X93730D02*
X89530D01*
X90303Y226862D01*
X91862Y225303D01*
X93730Y224530D01*
Y228730D01*
D02*
G37*
G36*
X131270Y220470D02*
Y216270D01*
X135470D01*
X134697Y218138D01*
X133138Y219697D01*
X131270Y220470D01*
D02*
G37*
G36*
X128730D02*
X126862Y219697D01*
X125303Y218138D01*
X124530Y216270D01*
X128730D01*
Y220470D01*
D02*
G37*
G36*
X106270D02*
Y216270D01*
X110470D01*
X109697Y218138D01*
X108138Y219697D01*
X106270Y220470D01*
D02*
G37*
G36*
X103730D02*
X101862Y219697D01*
X100303Y218138D01*
X99530Y216270D01*
X103730D01*
Y220470D01*
D02*
G37*
G36*
X76270D02*
Y216270D01*
X80470D01*
X79697Y218138D01*
X78138Y219697D01*
X76270Y220470D01*
D02*
G37*
G36*
X73730D02*
X71862Y219697D01*
X70303Y218138D01*
X69530Y216270D01*
X73730D01*
Y220470D01*
D02*
G37*
G36*
X135470Y213730D02*
X131270D01*
Y209530D01*
X133138Y210303D01*
X134697Y211862D01*
X135470Y213730D01*
D02*
G37*
G36*
X128730D02*
X124530D01*
X125303Y211862D01*
X126862Y210303D01*
X128730Y209530D01*
Y213730D01*
D02*
G37*
G36*
X110470D02*
X106270D01*
Y209530D01*
X108138Y210303D01*
X109697Y211862D01*
X110470Y213730D01*
D02*
G37*
G36*
X103730D02*
X99530D01*
X100303Y211862D01*
X101862Y210303D01*
X103730Y209530D01*
Y213730D01*
D02*
G37*
G36*
X80470D02*
X76270D01*
Y209530D01*
X78138Y210303D01*
X79697Y211862D01*
X80470Y213730D01*
D02*
G37*
G36*
X73730D02*
X69530D01*
X70303Y211862D01*
X71862Y210303D01*
X73730Y209530D01*
Y213730D01*
D02*
G37*
G36*
X106270Y200470D02*
Y196270D01*
X110470D01*
X109697Y198138D01*
X108138Y199697D01*
X106270Y200470D01*
D02*
G37*
G36*
X103730D02*
X101862Y199697D01*
X100303Y198138D01*
X99530Y196270D01*
X103730D01*
Y200470D01*
D02*
G37*
G36*
X76270D02*
Y196270D01*
X80470D01*
X79697Y198138D01*
X78138Y199697D01*
X76270Y200470D01*
D02*
G37*
G36*
X73730D02*
X71862Y199697D01*
X70303Y198138D01*
X69530Y196270D01*
X73730D01*
Y200470D01*
D02*
G37*
G36*
X46270D02*
Y196270D01*
X50470D01*
X49697Y198138D01*
X48138Y199697D01*
X46270Y200470D01*
D02*
G37*
G36*
X43730D02*
X41862Y199697D01*
X40303Y198138D01*
X39530Y196270D01*
X43730D01*
Y200470D01*
D02*
G37*
G36*
X110470Y193730D02*
X106270D01*
Y189530D01*
X108138Y190303D01*
X109697Y191862D01*
X110470Y193730D01*
D02*
G37*
G36*
X103730D02*
X99530D01*
X100303Y191862D01*
X101862Y190303D01*
X103730Y189530D01*
Y193730D01*
D02*
G37*
G36*
X80470D02*
X76270D01*
Y189530D01*
X78138Y190303D01*
X79697Y191862D01*
X80470Y193730D01*
D02*
G37*
G36*
X73730D02*
X69530D01*
X70303Y191862D01*
X71862Y190303D01*
X73730Y189530D01*
Y193730D01*
D02*
G37*
G36*
X50470D02*
X46270D01*
Y189530D01*
X48138Y190303D01*
X49697Y191862D01*
X50470Y193730D01*
D02*
G37*
G36*
X43730D02*
X39530D01*
X40303Y191862D01*
X41862Y190303D01*
X43730Y189530D01*
Y193730D01*
D02*
G37*
G36*
X866270Y185470D02*
Y181270D01*
X870470D01*
X869697Y183138D01*
X868138Y184697D01*
X866270Y185470D01*
D02*
G37*
G36*
X863730D02*
X861862Y184697D01*
X860303Y183138D01*
X859530Y181270D01*
X863730D01*
Y185470D01*
D02*
G37*
G36*
X836270D02*
Y181270D01*
X840470D01*
X839697Y183138D01*
X838138Y184697D01*
X836270Y185470D01*
D02*
G37*
G36*
X833730D02*
X831862Y184697D01*
X830303Y183138D01*
X829530Y181270D01*
X833730D01*
Y185470D01*
D02*
G37*
G36*
X806270D02*
Y181270D01*
X810470D01*
X809697Y183138D01*
X808138Y184697D01*
X806270Y185470D01*
D02*
G37*
G36*
X803730D02*
X801862Y184697D01*
X800303Y183138D01*
X799530Y181270D01*
X803730D01*
Y185470D01*
D02*
G37*
G36*
X776270D02*
Y181270D01*
X780470D01*
X779697Y183138D01*
X778138Y184697D01*
X776270Y185470D01*
D02*
G37*
G36*
X773730D02*
X771862Y184697D01*
X770303Y183138D01*
X769530Y181270D01*
X773730D01*
Y185470D01*
D02*
G37*
G36*
X746270D02*
Y181270D01*
X750470D01*
X749697Y183138D01*
X748138Y184697D01*
X746270Y185470D01*
D02*
G37*
G36*
X743730D02*
X741862Y184697D01*
X740303Y183138D01*
X739530Y181270D01*
X743730D01*
Y185470D01*
D02*
G37*
G36*
X391270Y180470D02*
Y176270D01*
X395470D01*
X394697Y178138D01*
X393138Y179697D01*
X391270Y180470D01*
D02*
G37*
G36*
X388730D02*
X386862Y179697D01*
X385303Y178138D01*
X384530Y176270D01*
X388730D01*
Y180470D01*
D02*
G37*
G36*
X366270D02*
Y176270D01*
X370470D01*
X369697Y178138D01*
X368138Y179697D01*
X366270Y180470D01*
D02*
G37*
G36*
X363730D02*
X361862Y179697D01*
X360303Y178138D01*
X359530Y176270D01*
X363730D01*
Y180470D01*
D02*
G37*
G36*
X341270D02*
Y176270D01*
X345470D01*
X344697Y178138D01*
X343138Y179697D01*
X341270Y180470D01*
D02*
G37*
G36*
X338730D02*
X336862Y179697D01*
X335303Y178138D01*
X334530Y176270D01*
X338730D01*
Y180470D01*
D02*
G37*
G36*
X316270D02*
Y176270D01*
X320470D01*
X319697Y178138D01*
X318138Y179697D01*
X316270Y180470D01*
D02*
G37*
G36*
X313730D02*
X311862Y179697D01*
X310303Y178138D01*
X309530Y176270D01*
X313730D01*
Y180470D01*
D02*
G37*
G36*
X291270D02*
Y176270D01*
X295470D01*
X294697Y178138D01*
X293138Y179697D01*
X291270Y180470D01*
D02*
G37*
G36*
X288730D02*
X286862Y179697D01*
X285303Y178138D01*
X284530Y176270D01*
X288730D01*
Y180470D01*
D02*
G37*
G36*
X266270D02*
Y176270D01*
X270470D01*
X269697Y178138D01*
X268138Y179697D01*
X266270Y180470D01*
D02*
G37*
G36*
X263730D02*
X261862Y179697D01*
X260303Y178138D01*
X259530Y176270D01*
X263730D01*
Y180470D01*
D02*
G37*
G36*
X241270D02*
Y176270D01*
X245470D01*
X244697Y178138D01*
X243138Y179697D01*
X241270Y180470D01*
D02*
G37*
G36*
X238730D02*
X236862Y179697D01*
X235303Y178138D01*
X234530Y176270D01*
X238730D01*
Y180470D01*
D02*
G37*
G36*
X216270D02*
Y176270D01*
X220470D01*
X219697Y178138D01*
X218138Y179697D01*
X216270Y180470D01*
D02*
G37*
G36*
X213730D02*
X211862Y179697D01*
X210303Y178138D01*
X209530Y176270D01*
X213730D01*
Y180470D01*
D02*
G37*
G36*
X191270D02*
Y176270D01*
X195470D01*
X194697Y178138D01*
X193138Y179697D01*
X191270Y180470D01*
D02*
G37*
G36*
X188730D02*
X186862Y179697D01*
X185303Y178138D01*
X184530Y176270D01*
X188730D01*
Y180470D01*
D02*
G37*
G36*
X870470Y178730D02*
X866270D01*
Y174530D01*
X868138Y175303D01*
X869697Y176862D01*
X870470Y178730D01*
D02*
G37*
G36*
X863730D02*
X859530D01*
X860303Y176862D01*
X861862Y175303D01*
X863730Y174530D01*
Y178730D01*
D02*
G37*
G36*
X840470D02*
X836270D01*
Y174530D01*
X838138Y175303D01*
X839697Y176862D01*
X840470Y178730D01*
D02*
G37*
G36*
X833730D02*
X829530D01*
X830303Y176862D01*
X831862Y175303D01*
X833730Y174530D01*
Y178730D01*
D02*
G37*
G36*
X810470D02*
X806270D01*
Y174530D01*
X808138Y175303D01*
X809697Y176862D01*
X810470Y178730D01*
D02*
G37*
G36*
X803730D02*
X799530D01*
X800303Y176862D01*
X801862Y175303D01*
X803730Y174530D01*
Y178730D01*
D02*
G37*
G36*
X780470D02*
X776270D01*
Y174530D01*
X778138Y175303D01*
X779697Y176862D01*
X780470Y178730D01*
D02*
G37*
G36*
X773730D02*
X769530D01*
X770303Y176862D01*
X771862Y175303D01*
X773730Y174530D01*
Y178730D01*
D02*
G37*
G36*
X750470D02*
X746270D01*
Y174530D01*
X748138Y175303D01*
X749697Y176862D01*
X750470Y178730D01*
D02*
G37*
G36*
X743730D02*
X739530D01*
X740303Y176862D01*
X741862Y175303D01*
X743730Y174530D01*
Y178730D01*
D02*
G37*
G36*
X81270Y175470D02*
Y171270D01*
X85470D01*
X84697Y173138D01*
X83138Y174697D01*
X81270Y175470D01*
D02*
G37*
G36*
X78730D02*
X76862Y174697D01*
X75303Y173138D01*
X74530Y171270D01*
X78730D01*
Y175470D01*
D02*
G37*
G36*
X51270D02*
Y171270D01*
X55470D01*
X54697Y173138D01*
X53138Y174697D01*
X51270Y175470D01*
D02*
G37*
G36*
X48730D02*
X46862Y174697D01*
X45303Y173138D01*
X44530Y171270D01*
X48730D01*
Y175470D01*
D02*
G37*
G36*
X26270D02*
Y171270D01*
X30470D01*
X29697Y173138D01*
X28138Y174697D01*
X26270Y175470D01*
D02*
G37*
G36*
X23730D02*
X21862Y174697D01*
X20303Y173138D01*
X19530Y171270D01*
X23730D01*
Y175470D01*
D02*
G37*
G36*
X762264Y174093D02*
Y169893D01*
X766464D01*
X765691Y171761D01*
X764132Y173319D01*
X762264Y174093D01*
D02*
G37*
G36*
X759724D02*
X757856Y173319D01*
X756297Y171761D01*
X755524Y169893D01*
X759724D01*
Y174093D01*
D02*
G37*
G36*
X791756Y173957D02*
Y169757D01*
X795957D01*
X795183Y171625D01*
X793624Y173183D01*
X791756Y173957D01*
D02*
G37*
G36*
X789216D02*
X787348Y173183D01*
X785790Y171625D01*
X785016Y169757D01*
X789216D01*
Y173957D01*
D02*
G37*
G36*
X395470Y173730D02*
X391270D01*
Y169530D01*
X393138Y170303D01*
X394697Y171862D01*
X395470Y173730D01*
D02*
G37*
G36*
X388730D02*
X384530D01*
X385303Y171862D01*
X386862Y170303D01*
X388730Y169530D01*
Y173730D01*
D02*
G37*
G36*
X370470D02*
X366270D01*
Y169530D01*
X368138Y170303D01*
X369697Y171862D01*
X370470Y173730D01*
D02*
G37*
G36*
X363730D02*
X359530D01*
X360303Y171862D01*
X361862Y170303D01*
X363730Y169530D01*
Y173730D01*
D02*
G37*
G36*
X345470D02*
X341270D01*
Y169530D01*
X343138Y170303D01*
X344697Y171862D01*
X345470Y173730D01*
D02*
G37*
G36*
X338730D02*
X334530D01*
X335303Y171862D01*
X336862Y170303D01*
X338730Y169530D01*
Y173730D01*
D02*
G37*
G36*
X320470D02*
X316270D01*
Y169530D01*
X318138Y170303D01*
X319697Y171862D01*
X320470Y173730D01*
D02*
G37*
G36*
X313730D02*
X309530D01*
X310303Y171862D01*
X311862Y170303D01*
X313730Y169530D01*
Y173730D01*
D02*
G37*
G36*
X295470D02*
X291270D01*
Y169530D01*
X293138Y170303D01*
X294697Y171862D01*
X295470Y173730D01*
D02*
G37*
G36*
X288730D02*
X284530D01*
X285303Y171862D01*
X286862Y170303D01*
X288730Y169530D01*
Y173730D01*
D02*
G37*
G36*
X270470D02*
X266270D01*
Y169530D01*
X268138Y170303D01*
X269697Y171862D01*
X270470Y173730D01*
D02*
G37*
G36*
X263730D02*
X259530D01*
X260303Y171862D01*
X261862Y170303D01*
X263730Y169530D01*
Y173730D01*
D02*
G37*
G36*
X245470D02*
X241270D01*
Y169530D01*
X243138Y170303D01*
X244697Y171862D01*
X245470Y173730D01*
D02*
G37*
G36*
X238730D02*
X234530D01*
X235303Y171862D01*
X236862Y170303D01*
X238730Y169530D01*
Y173730D01*
D02*
G37*
G36*
X220470D02*
X216270D01*
Y169530D01*
X218138Y170303D01*
X219697Y171862D01*
X220470Y173730D01*
D02*
G37*
G36*
X213730D02*
X209530D01*
X210303Y171862D01*
X211862Y170303D01*
X213730Y169530D01*
Y173730D01*
D02*
G37*
G36*
X195470D02*
X191270D01*
Y169530D01*
X193138Y170303D01*
X194697Y171862D01*
X195470Y173730D01*
D02*
G37*
G36*
X188730D02*
X184530D01*
X185303Y171862D01*
X186862Y170303D01*
X188730Y169530D01*
Y173730D01*
D02*
G37*
G36*
X175470D02*
X171270D01*
Y169530D01*
X173138Y170303D01*
X174697Y171862D01*
X175470Y173730D01*
D02*
G37*
G36*
X875270Y170470D02*
Y166270D01*
X879470D01*
X878697Y168138D01*
X877138Y169697D01*
X875270Y170470D01*
D02*
G37*
G36*
X872730D02*
X870862Y169697D01*
X869303Y168138D01*
X868530Y166270D01*
X872730D01*
Y170470D01*
D02*
G37*
G36*
X851270D02*
Y166270D01*
X855470D01*
X854697Y168138D01*
X853138Y169697D01*
X851270Y170470D01*
D02*
G37*
G36*
X848730D02*
X846862Y169697D01*
X845303Y168138D01*
X844530Y166270D01*
X848730D01*
Y170470D01*
D02*
G37*
G36*
X821270D02*
Y166270D01*
X825470D01*
X824697Y168138D01*
X823138Y169697D01*
X821270Y170470D01*
D02*
G37*
G36*
X818730D02*
X816862Y169697D01*
X815303Y168138D01*
X814530Y166270D01*
X818730D01*
Y170470D01*
D02*
G37*
G36*
X85470Y168730D02*
X81270D01*
Y164530D01*
X83138Y165303D01*
X84697Y166862D01*
X85470Y168730D01*
D02*
G37*
G36*
X78730D02*
X74530D01*
X75303Y166862D01*
X76862Y165303D01*
X78730Y164530D01*
Y168730D01*
D02*
G37*
G36*
X55470D02*
X51270D01*
Y164530D01*
X53138Y165303D01*
X54697Y166862D01*
X55470Y168730D01*
D02*
G37*
G36*
X48730D02*
X44530D01*
X45303Y166862D01*
X46862Y165303D01*
X48730Y164530D01*
Y168730D01*
D02*
G37*
G36*
X30470D02*
X26270D01*
Y164530D01*
X28138Y165303D01*
X29697Y166862D01*
X30470Y168730D01*
D02*
G37*
G36*
X23730D02*
X19530D01*
X20303Y166862D01*
X21862Y165303D01*
X23730Y164530D01*
Y168730D01*
D02*
G37*
G36*
X766464Y167353D02*
X762264D01*
Y163152D01*
X764132Y163926D01*
X765691Y165484D01*
X766464Y167353D01*
D02*
G37*
G36*
X759724D02*
X755524D01*
X756297Y165484D01*
X757856Y163926D01*
X759724Y163152D01*
Y167353D01*
D02*
G37*
G36*
X795957Y167217D02*
X791756D01*
Y163016D01*
X793624Y163790D01*
X795183Y165348D01*
X795957Y167217D01*
D02*
G37*
G36*
X789216D02*
X785016D01*
X785790Y165348D01*
X787348Y163790D01*
X789216Y163016D01*
Y167217D01*
D02*
G37*
G36*
X879470Y163730D02*
X875270D01*
Y159530D01*
X877138Y160303D01*
X878697Y161862D01*
X879470Y163730D01*
D02*
G37*
G36*
X872730D02*
X868530D01*
X869303Y161862D01*
X870862Y160303D01*
X872730Y159530D01*
Y163730D01*
D02*
G37*
G36*
X855470D02*
X851270D01*
Y159530D01*
X853138Y160303D01*
X854697Y161862D01*
X855470Y163730D01*
D02*
G37*
G36*
X848730D02*
X844530D01*
X845303Y161862D01*
X846862Y160303D01*
X848730Y159530D01*
Y163730D01*
D02*
G37*
G36*
X825470D02*
X821270D01*
Y159530D01*
X823138Y160303D01*
X824697Y161862D01*
X825470Y163730D01*
D02*
G37*
G36*
X818730D02*
X814530D01*
X815303Y161862D01*
X816862Y160303D01*
X818730Y159530D01*
Y163730D01*
D02*
G37*
G36*
X721270Y155470D02*
Y151270D01*
X725470D01*
X724697Y153138D01*
X723138Y154697D01*
X721270Y155470D01*
D02*
G37*
G36*
X718730D02*
X716862Y154697D01*
X715303Y153138D01*
X714530Y151270D01*
X718730D01*
Y155470D01*
D02*
G37*
G36*
X691270D02*
Y151270D01*
X695470D01*
X694697Y153138D01*
X693138Y154697D01*
X691270Y155470D01*
D02*
G37*
G36*
X688730D02*
X686862Y154697D01*
X685303Y153138D01*
X684530Y151270D01*
X688730D01*
Y155470D01*
D02*
G37*
G36*
X661270D02*
Y151270D01*
X665470D01*
X664697Y153138D01*
X663138Y154697D01*
X661270Y155470D01*
D02*
G37*
G36*
X658730D02*
X656862Y154697D01*
X655303Y153138D01*
X654530Y151270D01*
X658730D01*
Y155470D01*
D02*
G37*
G36*
X631270D02*
Y151270D01*
X635470D01*
X634697Y153138D01*
X633138Y154697D01*
X631270Y155470D01*
D02*
G37*
G36*
X628730D02*
X626862Y154697D01*
X625303Y153138D01*
X624530Y151270D01*
X628730D01*
Y155470D01*
D02*
G37*
G36*
X521270D02*
Y151270D01*
X525470D01*
X524697Y153138D01*
X523138Y154697D01*
X521270Y155470D01*
D02*
G37*
G36*
X518730D02*
X516862Y154697D01*
X515303Y153138D01*
X514530Y151270D01*
X518730D01*
Y155470D01*
D02*
G37*
G36*
X496270D02*
Y151270D01*
X500470D01*
X499697Y153138D01*
X498138Y154697D01*
X496270Y155470D01*
D02*
G37*
G36*
X493730D02*
X491862Y154697D01*
X490303Y153138D01*
X489530Y151270D01*
X493730D01*
Y155470D01*
D02*
G37*
G36*
X471270D02*
Y151270D01*
X475470D01*
X474697Y153138D01*
X473138Y154697D01*
X471270Y155470D01*
D02*
G37*
G36*
X468730D02*
X466862Y154697D01*
X465303Y153138D01*
X464530Y151270D01*
X468730D01*
Y155470D01*
D02*
G37*
G36*
X446270D02*
Y151270D01*
X450470D01*
X449697Y153138D01*
X448138Y154697D01*
X446270Y155470D01*
D02*
G37*
G36*
X443730D02*
X441862Y154697D01*
X440303Y153138D01*
X439530Y151270D01*
X443730D01*
Y155470D01*
D02*
G37*
G36*
X421270D02*
Y151270D01*
X425470D01*
X424697Y153138D01*
X423138Y154697D01*
X421270Y155470D01*
D02*
G37*
G36*
X418730D02*
X416862Y154697D01*
X415303Y153138D01*
X414530Y151270D01*
X418730D01*
Y155470D01*
D02*
G37*
G36*
X316270D02*
Y151270D01*
X320470D01*
X319697Y153138D01*
X318138Y154697D01*
X316270Y155470D01*
D02*
G37*
G36*
X313730D02*
X311862Y154697D01*
X310303Y153138D01*
X309530Y151270D01*
X313730D01*
Y155470D01*
D02*
G37*
G36*
X291270D02*
Y151270D01*
X295470D01*
X294697Y153138D01*
X293138Y154697D01*
X291270Y155470D01*
D02*
G37*
G36*
X288730D02*
X286862Y154697D01*
X285303Y153138D01*
X284530Y151270D01*
X288730D01*
Y155470D01*
D02*
G37*
G36*
X266270D02*
Y151270D01*
X270470D01*
X269697Y153138D01*
X268138Y154697D01*
X266270Y155470D01*
D02*
G37*
G36*
X263730D02*
X261862Y154697D01*
X260303Y153138D01*
X259530Y151270D01*
X263730D01*
Y155470D01*
D02*
G37*
G36*
X241270D02*
Y151270D01*
X245470D01*
X244697Y153138D01*
X243138Y154697D01*
X241270Y155470D01*
D02*
G37*
G36*
X238730D02*
X236862Y154697D01*
X235303Y153138D01*
X234530Y151270D01*
X238730D01*
Y155470D01*
D02*
G37*
G36*
X216270D02*
Y151270D01*
X220470D01*
X219697Y153138D01*
X218138Y154697D01*
X216270Y155470D01*
D02*
G37*
G36*
X213730D02*
X211862Y154697D01*
X210303Y153138D01*
X209530Y151270D01*
X213730D01*
Y155470D01*
D02*
G37*
G36*
X65109Y154320D02*
Y150120D01*
X69310D01*
X68536Y151988D01*
X66977Y153547D01*
X65109Y154320D01*
D02*
G37*
G36*
X62569D02*
X60701Y153547D01*
X59143Y151988D01*
X58369Y150120D01*
X62569D01*
Y154320D01*
D02*
G37*
G36*
X821270Y150470D02*
Y146270D01*
X825470D01*
X824697Y148138D01*
X823138Y149697D01*
X821270Y150470D01*
D02*
G37*
G36*
X818730D02*
X816862Y149697D01*
X815303Y148138D01*
X814530Y146270D01*
X818730D01*
Y150470D01*
D02*
G37*
G36*
X725470Y148730D02*
X721270D01*
Y144530D01*
X723138Y145303D01*
X724697Y146862D01*
X725470Y148730D01*
D02*
G37*
G36*
X718730D02*
X714530D01*
X715303Y146862D01*
X716862Y145303D01*
X718730Y144530D01*
Y148730D01*
D02*
G37*
G36*
X695470D02*
X691270D01*
Y144530D01*
X693138Y145303D01*
X694697Y146862D01*
X695470Y148730D01*
D02*
G37*
G36*
X688730D02*
X684530D01*
X685303Y146862D01*
X686862Y145303D01*
X688730Y144530D01*
Y148730D01*
D02*
G37*
G36*
X665470D02*
X661270D01*
Y144530D01*
X663138Y145303D01*
X664697Y146862D01*
X665470Y148730D01*
D02*
G37*
G36*
X658730D02*
X654530D01*
X655303Y146862D01*
X656862Y145303D01*
X658730Y144530D01*
Y148730D01*
D02*
G37*
G36*
X635470D02*
X631270D01*
Y144530D01*
X633138Y145303D01*
X634697Y146862D01*
X635470Y148730D01*
D02*
G37*
G36*
X628730D02*
X624530D01*
X625303Y146862D01*
X626862Y145303D01*
X628730Y144530D01*
Y148730D01*
D02*
G37*
G36*
X525470D02*
X521270D01*
Y144530D01*
X523138Y145303D01*
X524697Y146862D01*
X525470Y148730D01*
D02*
G37*
G36*
X518730D02*
X514530D01*
X515303Y146862D01*
X516862Y145303D01*
X518730Y144530D01*
Y148730D01*
D02*
G37*
G36*
X500470D02*
X496270D01*
Y144530D01*
X498138Y145303D01*
X499697Y146862D01*
X500470Y148730D01*
D02*
G37*
G36*
X493730D02*
X489530D01*
X490303Y146862D01*
X491862Y145303D01*
X493730Y144530D01*
Y148730D01*
D02*
G37*
G36*
X475470D02*
X471270D01*
Y144530D01*
X473138Y145303D01*
X474697Y146862D01*
X475470Y148730D01*
D02*
G37*
G36*
X468730D02*
X464530D01*
X465303Y146862D01*
X466862Y145303D01*
X468730Y144530D01*
Y148730D01*
D02*
G37*
G36*
X450470D02*
X446270D01*
Y144530D01*
X448138Y145303D01*
X449697Y146862D01*
X450470Y148730D01*
D02*
G37*
G36*
X443730D02*
X439530D01*
X440303Y146862D01*
X441862Y145303D01*
X443730Y144530D01*
Y148730D01*
D02*
G37*
G36*
X425470D02*
X421270D01*
Y144530D01*
X423138Y145303D01*
X424697Y146862D01*
X425470Y148730D01*
D02*
G37*
G36*
X418730D02*
X414530D01*
X415303Y146862D01*
X416862Y145303D01*
X418730Y144530D01*
Y148730D01*
D02*
G37*
G36*
X320470D02*
X316270D01*
Y144530D01*
X318138Y145303D01*
X319697Y146862D01*
X320470Y148730D01*
D02*
G37*
G36*
X313730D02*
X309530D01*
X310303Y146862D01*
X311862Y145303D01*
X313730Y144530D01*
Y148730D01*
D02*
G37*
G36*
X295470D02*
X291270D01*
Y144530D01*
X293138Y145303D01*
X294697Y146862D01*
X295470Y148730D01*
D02*
G37*
G36*
X288730D02*
X284530D01*
X285303Y146862D01*
X286862Y145303D01*
X288730Y144530D01*
Y148730D01*
D02*
G37*
G36*
X270470D02*
X266270D01*
Y144530D01*
X268138Y145303D01*
X269697Y146862D01*
X270470Y148730D01*
D02*
G37*
G36*
X263730D02*
X259530D01*
X260303Y146862D01*
X261862Y145303D01*
X263730Y144530D01*
Y148730D01*
D02*
G37*
G36*
X245470D02*
X241270D01*
Y144530D01*
X243138Y145303D01*
X244697Y146862D01*
X245470Y148730D01*
D02*
G37*
G36*
X238730D02*
X234530D01*
X235303Y146862D01*
X236862Y145303D01*
X238730Y144530D01*
Y148730D01*
D02*
G37*
G36*
X220470D02*
X216270D01*
Y144530D01*
X218138Y145303D01*
X219697Y146862D01*
X220470Y148730D01*
D02*
G37*
G36*
X213730D02*
X209530D01*
X210303Y146862D01*
X211862Y145303D01*
X213730Y144530D01*
Y148730D01*
D02*
G37*
G36*
X69310Y147580D02*
X65109D01*
Y143380D01*
X66977Y144154D01*
X68536Y145712D01*
X69310Y147580D01*
D02*
G37*
G36*
X62569D02*
X58369D01*
X59143Y145712D01*
X60701Y144154D01*
X62569Y143380D01*
Y147580D01*
D02*
G37*
G36*
X825470Y143730D02*
X821270D01*
Y139530D01*
X823138Y140303D01*
X824697Y141862D01*
X825470Y143730D01*
D02*
G37*
G36*
X818730D02*
X814530D01*
X815303Y141862D01*
X816862Y140303D01*
X818730Y139530D01*
Y143730D01*
D02*
G37*
G36*
X721270Y130470D02*
Y126270D01*
X725470D01*
X724697Y128138D01*
X723138Y129697D01*
X721270Y130470D01*
D02*
G37*
G36*
X718730D02*
X716862Y129697D01*
X715303Y128138D01*
X714530Y126270D01*
X718730D01*
Y130470D01*
D02*
G37*
G36*
X691270D02*
Y126270D01*
X695470D01*
X694697Y128138D01*
X693138Y129697D01*
X691270Y130470D01*
D02*
G37*
G36*
X688730D02*
X686862Y129697D01*
X685303Y128138D01*
X684530Y126270D01*
X688730D01*
Y130470D01*
D02*
G37*
G36*
X661270D02*
Y126270D01*
X665470D01*
X664697Y128138D01*
X663138Y129697D01*
X661270Y130470D01*
D02*
G37*
G36*
X658730D02*
X656862Y129697D01*
X655303Y128138D01*
X654530Y126270D01*
X658730D01*
Y130470D01*
D02*
G37*
G36*
X631270D02*
Y126270D01*
X635470D01*
X634697Y128138D01*
X633138Y129697D01*
X631270Y130470D01*
D02*
G37*
G36*
X628730D02*
X626862Y129697D01*
X625303Y128138D01*
X624530Y126270D01*
X628730D01*
Y130470D01*
D02*
G37*
G36*
X521270D02*
Y126270D01*
X525470D01*
X524697Y128138D01*
X523138Y129697D01*
X521270Y130470D01*
D02*
G37*
G36*
X518730D02*
X516862Y129697D01*
X515303Y128138D01*
X514530Y126270D01*
X518730D01*
Y130470D01*
D02*
G37*
G36*
X496270D02*
Y126270D01*
X500470D01*
X499697Y128138D01*
X498138Y129697D01*
X496270Y130470D01*
D02*
G37*
G36*
X493730D02*
X491862Y129697D01*
X490303Y128138D01*
X489530Y126270D01*
X493730D01*
Y130470D01*
D02*
G37*
G36*
X471270D02*
Y126270D01*
X475470D01*
X474697Y128138D01*
X473138Y129697D01*
X471270Y130470D01*
D02*
G37*
G36*
X468730D02*
X466862Y129697D01*
X465303Y128138D01*
X464530Y126270D01*
X468730D01*
Y130470D01*
D02*
G37*
G36*
X446270D02*
Y126270D01*
X450470D01*
X449697Y128138D01*
X448138Y129697D01*
X446270Y130470D01*
D02*
G37*
G36*
X443730D02*
X441862Y129697D01*
X440303Y128138D01*
X439530Y126270D01*
X443730D01*
Y130470D01*
D02*
G37*
G36*
X421270D02*
Y126270D01*
X425470D01*
X424697Y128138D01*
X423138Y129697D01*
X421270Y130470D01*
D02*
G37*
G36*
X418730D02*
X416862Y129697D01*
X415303Y128138D01*
X414530Y126270D01*
X418730D01*
Y130470D01*
D02*
G37*
G36*
X316270D02*
Y126270D01*
X320470D01*
X319697Y128138D01*
X318138Y129697D01*
X316270Y130470D01*
D02*
G37*
G36*
X313730D02*
X311862Y129697D01*
X310303Y128138D01*
X309530Y126270D01*
X313730D01*
Y130470D01*
D02*
G37*
G36*
X291270D02*
Y126270D01*
X295470D01*
X294697Y128138D01*
X293138Y129697D01*
X291270Y130470D01*
D02*
G37*
G36*
X288730D02*
X286862Y129697D01*
X285303Y128138D01*
X284530Y126270D01*
X288730D01*
Y130470D01*
D02*
G37*
G36*
X266270D02*
Y126270D01*
X270470D01*
X269697Y128138D01*
X268138Y129697D01*
X266270Y130470D01*
D02*
G37*
G36*
X263730D02*
X261862Y129697D01*
X260303Y128138D01*
X259530Y126270D01*
X263730D01*
Y130470D01*
D02*
G37*
G36*
X241270D02*
Y126270D01*
X245470D01*
X244697Y128138D01*
X243138Y129697D01*
X241270Y130470D01*
D02*
G37*
G36*
X238730D02*
X236862Y129697D01*
X235303Y128138D01*
X234530Y126270D01*
X238730D01*
Y130470D01*
D02*
G37*
G36*
X216270D02*
Y126270D01*
X220470D01*
X219697Y128138D01*
X218138Y129697D01*
X216270Y130470D01*
D02*
G37*
G36*
X213730D02*
X211862Y129697D01*
X210303Y128138D01*
X209530Y126270D01*
X213730D01*
Y130470D01*
D02*
G37*
G36*
X167974Y161290D02*
X166270D01*
Y124770D01*
X202790D01*
Y126474D01*
X201859Y132349D01*
X200021Y138006D01*
X197321Y143306D01*
X193825Y148119D01*
X189618Y152325D01*
X184806Y155821D01*
X179506Y158521D01*
X173849Y160359D01*
X167974Y161290D01*
D02*
G37*
G36*
X725470Y123730D02*
X721270D01*
Y119530D01*
X723138Y120303D01*
X724697Y121862D01*
X725470Y123730D01*
D02*
G37*
G36*
X718730D02*
X714530D01*
X715303Y121862D01*
X716862Y120303D01*
X718730Y119530D01*
Y123730D01*
D02*
G37*
G36*
X695470D02*
X691270D01*
Y119530D01*
X693138Y120303D01*
X694697Y121862D01*
X695470Y123730D01*
D02*
G37*
G36*
X688730D02*
X684530D01*
X685303Y121862D01*
X686862Y120303D01*
X688730Y119530D01*
Y123730D01*
D02*
G37*
G36*
X665470D02*
X661270D01*
Y119530D01*
X663138Y120303D01*
X664697Y121862D01*
X665470Y123730D01*
D02*
G37*
G36*
X658730D02*
X654530D01*
X655303Y121862D01*
X656862Y120303D01*
X658730Y119530D01*
Y123730D01*
D02*
G37*
G36*
X635470D02*
X631270D01*
Y119530D01*
X633138Y120303D01*
X634697Y121862D01*
X635470Y123730D01*
D02*
G37*
G36*
X628730D02*
X624530D01*
X625303Y121862D01*
X626862Y120303D01*
X628730Y119530D01*
Y123730D01*
D02*
G37*
G36*
X525470D02*
X521270D01*
Y119530D01*
X523138Y120303D01*
X524697Y121862D01*
X525470Y123730D01*
D02*
G37*
G36*
X518730D02*
X514530D01*
X515303Y121862D01*
X516862Y120303D01*
X518730Y119530D01*
Y123730D01*
D02*
G37*
G36*
X500470D02*
X496270D01*
Y119530D01*
X498138Y120303D01*
X499697Y121862D01*
X500470Y123730D01*
D02*
G37*
G36*
X493730D02*
X489530D01*
X490303Y121862D01*
X491862Y120303D01*
X493730Y119530D01*
Y123730D01*
D02*
G37*
G36*
X475470D02*
X471270D01*
Y119530D01*
X473138Y120303D01*
X474697Y121862D01*
X475470Y123730D01*
D02*
G37*
G36*
X468730D02*
X464530D01*
X465303Y121862D01*
X466862Y120303D01*
X468730Y119530D01*
Y123730D01*
D02*
G37*
G36*
X450470D02*
X446270D01*
Y119530D01*
X448138Y120303D01*
X449697Y121862D01*
X450470Y123730D01*
D02*
G37*
G36*
X443730D02*
X439530D01*
X440303Y121862D01*
X441862Y120303D01*
X443730Y119530D01*
Y123730D01*
D02*
G37*
G36*
X425470D02*
X421270D01*
Y119530D01*
X423138Y120303D01*
X424697Y121862D01*
X425470Y123730D01*
D02*
G37*
G36*
X418730D02*
X414530D01*
X415303Y121862D01*
X416862Y120303D01*
X418730Y119530D01*
Y123730D01*
D02*
G37*
G36*
X320470D02*
X316270D01*
Y119530D01*
X318138Y120303D01*
X319697Y121862D01*
X320470Y123730D01*
D02*
G37*
G36*
X313730D02*
X309530D01*
X310303Y121862D01*
X311862Y120303D01*
X313730Y119530D01*
Y123730D01*
D02*
G37*
G36*
X295470D02*
X291270D01*
Y119530D01*
X293138Y120303D01*
X294697Y121862D01*
X295470Y123730D01*
D02*
G37*
G36*
X288730D02*
X284530D01*
X285303Y121862D01*
X286862Y120303D01*
X288730Y119530D01*
Y123730D01*
D02*
G37*
G36*
X270470D02*
X266270D01*
Y119530D01*
X268138Y120303D01*
X269697Y121862D01*
X270470Y123730D01*
D02*
G37*
G36*
X263730D02*
X259530D01*
X260303Y121862D01*
X261862Y120303D01*
X263730Y119530D01*
Y123730D01*
D02*
G37*
G36*
X245470D02*
X241270D01*
Y119530D01*
X243138Y120303D01*
X244697Y121862D01*
X245470Y123730D01*
D02*
G37*
G36*
X238730D02*
X234530D01*
X235303Y121862D01*
X236862Y120303D01*
X238730Y119530D01*
Y123730D01*
D02*
G37*
G36*
X220470D02*
X216270D01*
Y119530D01*
X218138Y120303D01*
X219697Y121862D01*
X220470Y123730D01*
D02*
G37*
G36*
X213730D02*
X209530D01*
X210303Y121862D01*
X211862Y120303D01*
X213730Y119530D01*
Y123730D01*
D02*
G37*
G36*
X122540Y114200D02*
Y110000D01*
X126740D01*
X125967Y111868D01*
X124408Y113427D01*
X122540Y114200D01*
D02*
G37*
G36*
X126740Y107460D02*
X122540D01*
Y103260D01*
X124408Y104033D01*
X125967Y105592D01*
X126740Y107460D01*
D02*
G37*
G36*
X120000D02*
X115800D01*
X116573Y105592D01*
X118132Y104033D01*
X120000Y103260D01*
Y107460D01*
D02*
G37*
G36*
X736270Y105470D02*
Y101270D01*
X740470D01*
X739697Y103138D01*
X738138Y104697D01*
X736270Y105470D01*
D02*
G37*
G36*
X733730D02*
X731862Y104697D01*
X730303Y103138D01*
X729530Y101270D01*
X733730D01*
Y105470D01*
D02*
G37*
G36*
X706270D02*
Y101270D01*
X710470D01*
X709697Y103138D01*
X708138Y104697D01*
X706270Y105470D01*
D02*
G37*
G36*
X703730D02*
X701862Y104697D01*
X700303Y103138D01*
X699530Y101270D01*
X703730D01*
Y105470D01*
D02*
G37*
G36*
X676270D02*
Y101270D01*
X680470D01*
X679697Y103138D01*
X678138Y104697D01*
X676270Y105470D01*
D02*
G37*
G36*
X673730D02*
X671862Y104697D01*
X670303Y103138D01*
X669530Y101270D01*
X673730D01*
Y105470D01*
D02*
G37*
G36*
X646270D02*
Y101270D01*
X650470D01*
X649697Y103138D01*
X648138Y104697D01*
X646270Y105470D01*
D02*
G37*
G36*
X643730D02*
X641862Y104697D01*
X640303Y103138D01*
X639530Y101270D01*
X643730D01*
Y105470D01*
D02*
G37*
G36*
X616270D02*
Y101270D01*
X620470D01*
X619697Y103138D01*
X618138Y104697D01*
X616270Y105470D01*
D02*
G37*
G36*
X613730D02*
X611862Y104697D01*
X610303Y103138D01*
X609530Y101270D01*
X613730D01*
Y105470D01*
D02*
G37*
G36*
X521270D02*
Y101270D01*
X525470D01*
X524697Y103138D01*
X523138Y104697D01*
X521270Y105470D01*
D02*
G37*
G36*
X518730D02*
X516862Y104697D01*
X515303Y103138D01*
X514530Y101270D01*
X518730D01*
Y105470D01*
D02*
G37*
G36*
X496270D02*
Y101270D01*
X500470D01*
X499697Y103138D01*
X498138Y104697D01*
X496270Y105470D01*
D02*
G37*
G36*
X493730D02*
X491862Y104697D01*
X490303Y103138D01*
X489530Y101270D01*
X493730D01*
Y105470D01*
D02*
G37*
G36*
X471270D02*
Y101270D01*
X475470D01*
X474697Y103138D01*
X473138Y104697D01*
X471270Y105470D01*
D02*
G37*
G36*
X468730D02*
X466862Y104697D01*
X465303Y103138D01*
X464530Y101270D01*
X468730D01*
Y105470D01*
D02*
G37*
G36*
X446270D02*
Y101270D01*
X450470D01*
X449697Y103138D01*
X448138Y104697D01*
X446270Y105470D01*
D02*
G37*
G36*
X443730D02*
X441862Y104697D01*
X440303Y103138D01*
X439530Y101270D01*
X443730D01*
Y105470D01*
D02*
G37*
G36*
X421270D02*
Y101270D01*
X425470D01*
X424697Y103138D01*
X423138Y104697D01*
X421270Y105470D01*
D02*
G37*
G36*
X418730D02*
X416862Y104697D01*
X415303Y103138D01*
X414530Y101270D01*
X418730D01*
Y105470D01*
D02*
G37*
G36*
X316270D02*
Y101270D01*
X320470D01*
X319697Y103138D01*
X318138Y104697D01*
X316270Y105470D01*
D02*
G37*
G36*
X313730D02*
X311862Y104697D01*
X310303Y103138D01*
X309530Y101270D01*
X313730D01*
Y105470D01*
D02*
G37*
G36*
X291270D02*
Y101270D01*
X295470D01*
X294697Y103138D01*
X293138Y104697D01*
X291270Y105470D01*
D02*
G37*
G36*
X288730D02*
X286862Y104697D01*
X285303Y103138D01*
X284530Y101270D01*
X288730D01*
Y105470D01*
D02*
G37*
G36*
X266270D02*
Y101270D01*
X270470D01*
X269697Y103138D01*
X268138Y104697D01*
X266270Y105470D01*
D02*
G37*
G36*
X263730D02*
X261862Y104697D01*
X260303Y103138D01*
X259530Y101270D01*
X263730D01*
Y105470D01*
D02*
G37*
G36*
X241270D02*
Y101270D01*
X245470D01*
X244697Y103138D01*
X243138Y104697D01*
X241270Y105470D01*
D02*
G37*
G36*
X238730D02*
X236862Y104697D01*
X235303Y103138D01*
X234530Y101270D01*
X238730D01*
Y105470D01*
D02*
G37*
G36*
X216270D02*
Y101270D01*
X220470D01*
X219697Y103138D01*
X218138Y104697D01*
X216270Y105470D01*
D02*
G37*
G36*
X213730D02*
X211862Y104697D01*
X210303Y103138D01*
X209530Y101270D01*
X213730D01*
Y105470D01*
D02*
G37*
G36*
X112270Y99470D02*
Y95270D01*
X116470D01*
X115697Y97138D01*
X114138Y98697D01*
X112270Y99470D01*
D02*
G37*
G36*
X109730D02*
X107862Y98697D01*
X106303Y97138D01*
X105530Y95270D01*
X109730D01*
Y99470D01*
D02*
G37*
G36*
X740470Y98730D02*
X736270D01*
Y94530D01*
X738138Y95303D01*
X739697Y96862D01*
X740470Y98730D01*
D02*
G37*
G36*
X733730D02*
X729530D01*
X730303Y96862D01*
X731862Y95303D01*
X733730Y94530D01*
Y98730D01*
D02*
G37*
G36*
X710470D02*
X706270D01*
Y94530D01*
X708138Y95303D01*
X709697Y96862D01*
X710470Y98730D01*
D02*
G37*
G36*
X703730D02*
X699530D01*
X700303Y96862D01*
X701862Y95303D01*
X703730Y94530D01*
Y98730D01*
D02*
G37*
G36*
X680470D02*
X676270D01*
Y94530D01*
X678138Y95303D01*
X679697Y96862D01*
X680470Y98730D01*
D02*
G37*
G36*
X673730D02*
X669530D01*
X670303Y96862D01*
X671862Y95303D01*
X673730Y94530D01*
Y98730D01*
D02*
G37*
G36*
X650470D02*
X646270D01*
Y94530D01*
X648138Y95303D01*
X649697Y96862D01*
X650470Y98730D01*
D02*
G37*
G36*
X643730D02*
X639530D01*
X640303Y96862D01*
X641862Y95303D01*
X643730Y94530D01*
Y98730D01*
D02*
G37*
G36*
X620470D02*
X616270D01*
Y94530D01*
X618138Y95303D01*
X619697Y96862D01*
X620470Y98730D01*
D02*
G37*
G36*
X613730D02*
X609530D01*
X610303Y96862D01*
X611862Y95303D01*
X613730Y94530D01*
Y98730D01*
D02*
G37*
G36*
X525470D02*
X521270D01*
Y94530D01*
X523138Y95303D01*
X524697Y96862D01*
X525470Y98730D01*
D02*
G37*
G36*
X518730D02*
X514530D01*
X515303Y96862D01*
X516862Y95303D01*
X518730Y94530D01*
Y98730D01*
D02*
G37*
G36*
X500470D02*
X496270D01*
Y94530D01*
X498138Y95303D01*
X499697Y96862D01*
X500470Y98730D01*
D02*
G37*
G36*
X493730D02*
X489530D01*
X490303Y96862D01*
X491862Y95303D01*
X493730Y94530D01*
Y98730D01*
D02*
G37*
G36*
X475470D02*
X471270D01*
Y94530D01*
X473138Y95303D01*
X474697Y96862D01*
X475470Y98730D01*
D02*
G37*
G36*
X468730D02*
X464530D01*
X465303Y96862D01*
X466862Y95303D01*
X468730Y94530D01*
Y98730D01*
D02*
G37*
G36*
X450470D02*
X446270D01*
Y94530D01*
X448138Y95303D01*
X449697Y96862D01*
X450470Y98730D01*
D02*
G37*
G36*
X443730D02*
X439530D01*
X440303Y96862D01*
X441862Y95303D01*
X443730Y94530D01*
Y98730D01*
D02*
G37*
G36*
X425470D02*
X421270D01*
Y94530D01*
X423138Y95303D01*
X424697Y96862D01*
X425470Y98730D01*
D02*
G37*
G36*
X418730D02*
X414530D01*
X415303Y96862D01*
X416862Y95303D01*
X418730Y94530D01*
Y98730D01*
D02*
G37*
G36*
X320470D02*
X316270D01*
Y94530D01*
X318138Y95303D01*
X319697Y96862D01*
X320470Y98730D01*
D02*
G37*
G36*
X313730D02*
X309530D01*
X310303Y96862D01*
X311862Y95303D01*
X313730Y94530D01*
Y98730D01*
D02*
G37*
G36*
X295470D02*
X291270D01*
Y94530D01*
X293138Y95303D01*
X294697Y96862D01*
X295470Y98730D01*
D02*
G37*
G36*
X288730D02*
X284530D01*
X285303Y96862D01*
X286862Y95303D01*
X288730Y94530D01*
Y98730D01*
D02*
G37*
G36*
X270470D02*
X266270D01*
Y94530D01*
X268138Y95303D01*
X269697Y96862D01*
X270470Y98730D01*
D02*
G37*
G36*
X263730D02*
X259530D01*
X260303Y96862D01*
X261862Y95303D01*
X263730Y94530D01*
Y98730D01*
D02*
G37*
G36*
X245470D02*
X241270D01*
Y94530D01*
X243138Y95303D01*
X244697Y96862D01*
X245470Y98730D01*
D02*
G37*
G36*
X238730D02*
X234530D01*
X235303Y96862D01*
X236862Y95303D01*
X238730Y94530D01*
Y98730D01*
D02*
G37*
G36*
X220470D02*
X216270D01*
Y94530D01*
X218138Y95303D01*
X219697Y96862D01*
X220470Y98730D01*
D02*
G37*
G36*
X213730D02*
X209530D01*
X210303Y96862D01*
X211862Y95303D01*
X213730Y94530D01*
Y98730D01*
D02*
G37*
G36*
X130270Y97470D02*
Y93270D01*
X134470D01*
X133697Y95138D01*
X132138Y96697D01*
X130270Y97470D01*
D02*
G37*
G36*
X127730D02*
X125862Y96697D01*
X124303Y95138D01*
X123530Y93270D01*
X127730D01*
Y97470D01*
D02*
G37*
G36*
X116470Y92730D02*
X112270D01*
Y88530D01*
X114138Y89303D01*
X115697Y90862D01*
X116470Y92730D01*
D02*
G37*
G36*
X109730D02*
X105530D01*
X106303Y90862D01*
X107862Y89303D01*
X109730Y88530D01*
Y92730D01*
D02*
G37*
G36*
X134470Y90730D02*
X130270D01*
Y86530D01*
X132138Y87303D01*
X133697Y88862D01*
X134470Y90730D01*
D02*
G37*
G36*
X127730D02*
X123530D01*
X124303Y88862D01*
X125862Y87303D01*
X127730Y86530D01*
Y90730D01*
D02*
G37*
G36*
X24270Y90470D02*
Y86270D01*
X28470D01*
X27697Y88138D01*
X26138Y89697D01*
X24270Y90470D01*
D02*
G37*
G36*
X21730D02*
X19862Y89697D01*
X18303Y88138D01*
X17530Y86270D01*
X21730D01*
Y90470D01*
D02*
G37*
G36*
X202790Y122230D02*
X166270D01*
Y85710D01*
X167974D01*
X173849Y86641D01*
X179506Y88479D01*
X184806Y91179D01*
X189618Y94675D01*
X193825Y98882D01*
X197321Y103694D01*
X200021Y108994D01*
X201859Y114651D01*
X202790Y120526D01*
Y122230D01*
D02*
G37*
G36*
X578010Y161750D02*
X571990D01*
X566043Y160808D01*
X560317Y158948D01*
X554953Y156214D01*
X550082Y152676D01*
X545825Y148418D01*
X542286Y143547D01*
X539552Y138183D01*
X537692Y132457D01*
X536750Y126510D01*
Y120490D01*
X537692Y114543D01*
X539552Y108817D01*
X542286Y103453D01*
X545825Y98582D01*
X550082Y94325D01*
X554953Y90786D01*
X560317Y88052D01*
X566043Y86192D01*
X571990Y85250D01*
X578010D01*
X583957Y86192D01*
X589683Y88052D01*
X595047Y90786D01*
X599918Y94325D01*
X604175Y98582D01*
X607714Y103453D01*
X610448Y108817D01*
X612308Y114543D01*
X613250Y120490D01*
Y126510D01*
X612308Y132457D01*
X610448Y138183D01*
X607714Y143547D01*
X604175Y148418D01*
X599918Y152676D01*
X595047Y156214D01*
X589683Y158948D01*
X583957Y160808D01*
X578010Y161750D01*
D02*
G37*
G36*
X368010D02*
X361990D01*
X356043Y160808D01*
X350317Y158948D01*
X344953Y156214D01*
X340082Y152676D01*
X335825Y148418D01*
X332286Y143547D01*
X329552Y138183D01*
X327692Y132457D01*
X326750Y126510D01*
Y120490D01*
X327692Y114543D01*
X329552Y108817D01*
X332286Y103453D01*
X335825Y98582D01*
X340082Y94325D01*
X344953Y90786D01*
X350317Y88052D01*
X356043Y86192D01*
X361990Y85250D01*
X368010D01*
X373957Y86192D01*
X379683Y88052D01*
X385047Y90786D01*
X389918Y94325D01*
X394175Y98582D01*
X397714Y103453D01*
X400448Y108817D01*
X402308Y114543D01*
X403250Y120490D01*
Y126510D01*
X402308Y132457D01*
X400448Y138183D01*
X397714Y143547D01*
X394175Y148418D01*
X389918Y152676D01*
X385047Y156214D01*
X379683Y158948D01*
X373957Y160808D01*
X368010Y161750D01*
D02*
G37*
G36*
X930800Y89200D02*
Y85000D01*
X935000D01*
X934226Y86868D01*
X932668Y88427D01*
X930800Y89200D01*
D02*
G37*
G36*
X928260D02*
X926392Y88427D01*
X924833Y86868D01*
X924059Y85000D01*
X928260D01*
Y89200D01*
D02*
G37*
G36*
X913270Y88470D02*
Y84270D01*
X917470D01*
X916697Y86138D01*
X915138Y87697D01*
X913270Y88470D01*
D02*
G37*
G36*
X910730D02*
X908862Y87697D01*
X907303Y86138D01*
X906530Y84270D01*
X910730D01*
Y88470D01*
D02*
G37*
G36*
X28470Y83730D02*
X24270D01*
Y79530D01*
X26138Y80303D01*
X27697Y81862D01*
X28470Y83730D01*
D02*
G37*
G36*
X21730D02*
X17530D01*
X18303Y81862D01*
X19862Y80303D01*
X21730Y79530D01*
Y83730D01*
D02*
G37*
G36*
X935000Y82460D02*
X930800D01*
Y78260D01*
X932668Y79033D01*
X934226Y80592D01*
X935000Y82460D01*
D02*
G37*
G36*
X928260D02*
X924059D01*
X924833Y80592D01*
X926392Y79033D01*
X928260Y78260D01*
Y82460D01*
D02*
G37*
G36*
X917470Y81730D02*
X913270D01*
Y77530D01*
X915138Y78303D01*
X916697Y79862D01*
X917470Y81730D01*
D02*
G37*
G36*
X910730D02*
X906530D01*
X907303Y79862D01*
X908862Y78303D01*
X910730Y77530D01*
Y81730D01*
D02*
G37*
G36*
X800800Y80470D02*
Y76270D01*
X805000D01*
X804226Y78138D01*
X802668Y79697D01*
X800800Y80470D01*
D02*
G37*
G36*
X798260D02*
X796392Y79697D01*
X794833Y78138D01*
X794059Y76270D01*
X798260D01*
Y80470D01*
D02*
G37*
G36*
X776270D02*
Y76270D01*
X780470D01*
X779697Y78138D01*
X778138Y79697D01*
X776270Y80470D01*
D02*
G37*
G36*
X773730D02*
X771862Y79697D01*
X770303Y78138D01*
X769530Y76270D01*
X773730D01*
Y80470D01*
D02*
G37*
G36*
X746270D02*
Y76270D01*
X750470D01*
X749697Y78138D01*
X748138Y79697D01*
X746270Y80470D01*
D02*
G37*
G36*
X743730D02*
X741862Y79697D01*
X740303Y78138D01*
X739530Y76270D01*
X743730D01*
Y80470D01*
D02*
G37*
G36*
X716270D02*
Y76270D01*
X720470D01*
X719697Y78138D01*
X718138Y79697D01*
X716270Y80470D01*
D02*
G37*
G36*
X713730D02*
X711862Y79697D01*
X710303Y78138D01*
X709530Y76270D01*
X713730D01*
Y80470D01*
D02*
G37*
G36*
X686270D02*
Y76270D01*
X690470D01*
X689697Y78138D01*
X688138Y79697D01*
X686270Y80470D01*
D02*
G37*
G36*
X683730D02*
X681862Y79697D01*
X680303Y78138D01*
X679530Y76270D01*
X683730D01*
Y80470D01*
D02*
G37*
G36*
X656270D02*
Y76270D01*
X660470D01*
X659697Y78138D01*
X658138Y79697D01*
X656270Y80470D01*
D02*
G37*
G36*
X653730D02*
X651862Y79697D01*
X650303Y78138D01*
X649530Y76270D01*
X653730D01*
Y80470D01*
D02*
G37*
G36*
X626270D02*
Y76270D01*
X630470D01*
X629697Y78138D01*
X628138Y79697D01*
X626270Y80470D01*
D02*
G37*
G36*
X623730D02*
X621862Y79697D01*
X620303Y78138D01*
X619530Y76270D01*
X623730D01*
Y80470D01*
D02*
G37*
G36*
X596270D02*
Y76270D01*
X600470D01*
X599697Y78138D01*
X598138Y79697D01*
X596270Y80470D01*
D02*
G37*
G36*
X593730D02*
X591862Y79697D01*
X590303Y78138D01*
X589530Y76270D01*
X593730D01*
Y80470D01*
D02*
G37*
G36*
X566270D02*
Y76270D01*
X570470D01*
X569697Y78138D01*
X568138Y79697D01*
X566270Y80470D01*
D02*
G37*
G36*
X563730D02*
X561862Y79697D01*
X560303Y78138D01*
X559530Y76270D01*
X563730D01*
Y80470D01*
D02*
G37*
G36*
X925800Y76740D02*
Y72540D01*
X930000D01*
X929226Y74408D01*
X927668Y75967D01*
X925800Y76740D01*
D02*
G37*
G36*
X923260D02*
X921392Y75967D01*
X919833Y74408D01*
X919059Y72540D01*
X923260D01*
Y76740D01*
D02*
G37*
G36*
X905800D02*
Y72540D01*
X910000D01*
X909226Y74408D01*
X907668Y75967D01*
X905800Y76740D01*
D02*
G37*
G36*
X903260D02*
X901392Y75967D01*
X899833Y74408D01*
X899059Y72540D01*
X903260D01*
Y76740D01*
D02*
G37*
G36*
X805000Y73730D02*
X800800D01*
Y69530D01*
X802668Y70303D01*
X804226Y71862D01*
X805000Y73730D01*
D02*
G37*
G36*
X798260D02*
X794059D01*
X794833Y71862D01*
X796392Y70303D01*
X798260Y69530D01*
Y73730D01*
D02*
G37*
G36*
X780470D02*
X776270D01*
Y69530D01*
X778138Y70303D01*
X779697Y71862D01*
X780470Y73730D01*
D02*
G37*
G36*
X773730D02*
X769530D01*
X770303Y71862D01*
X771862Y70303D01*
X773730Y69530D01*
Y73730D01*
D02*
G37*
G36*
X750470D02*
X746270D01*
Y69530D01*
X748138Y70303D01*
X749697Y71862D01*
X750470Y73730D01*
D02*
G37*
G36*
X743730D02*
X739530D01*
X740303Y71862D01*
X741862Y70303D01*
X743730Y69530D01*
Y73730D01*
D02*
G37*
G36*
X720470D02*
X716270D01*
Y69530D01*
X718138Y70303D01*
X719697Y71862D01*
X720470Y73730D01*
D02*
G37*
G36*
X713730D02*
X709530D01*
X710303Y71862D01*
X711862Y70303D01*
X713730Y69530D01*
Y73730D01*
D02*
G37*
G36*
X690470D02*
X686270D01*
Y69530D01*
X688138Y70303D01*
X689697Y71862D01*
X690470Y73730D01*
D02*
G37*
G36*
X683730D02*
X679530D01*
X680303Y71862D01*
X681862Y70303D01*
X683730Y69530D01*
Y73730D01*
D02*
G37*
G36*
X660470D02*
X656270D01*
Y69530D01*
X658138Y70303D01*
X659697Y71862D01*
X660470Y73730D01*
D02*
G37*
G36*
X653730D02*
X649530D01*
X650303Y71862D01*
X651862Y70303D01*
X653730Y69530D01*
Y73730D01*
D02*
G37*
G36*
X630470D02*
X626270D01*
Y69530D01*
X628138Y70303D01*
X629697Y71862D01*
X630470Y73730D01*
D02*
G37*
G36*
X623730D02*
X619530D01*
X620303Y71862D01*
X621862Y70303D01*
X623730Y69530D01*
Y73730D01*
D02*
G37*
G36*
X600470D02*
X596270D01*
Y69530D01*
X598138Y70303D01*
X599697Y71862D01*
X600470Y73730D01*
D02*
G37*
G36*
X593730D02*
X589530D01*
X590303Y71862D01*
X591862Y70303D01*
X593730Y69530D01*
Y73730D01*
D02*
G37*
G36*
X570470D02*
X566270D01*
Y69530D01*
X568138Y70303D01*
X569697Y71862D01*
X570470Y73730D01*
D02*
G37*
G36*
X563730D02*
X559530D01*
X560303Y71862D01*
X561862Y70303D01*
X563730Y69530D01*
Y73730D01*
D02*
G37*
G36*
X28730Y70470D02*
X26862Y69697D01*
X25303Y68138D01*
X24530Y66270D01*
X28730D01*
Y70470D01*
D02*
G37*
G36*
X930000Y70000D02*
X925800D01*
Y65800D01*
X927668Y66573D01*
X929226Y68132D01*
X930000Y70000D01*
D02*
G37*
G36*
X923260D02*
X919059D01*
X919833Y68132D01*
X921392Y66573D01*
X923260Y65800D01*
Y70000D01*
D02*
G37*
G36*
X910000D02*
X905800D01*
Y65800D01*
X907668Y66573D01*
X909226Y68132D01*
X910000Y70000D01*
D02*
G37*
G36*
X903260D02*
X899059D01*
X899833Y68132D01*
X901392Y66573D01*
X903260Y65800D01*
Y70000D01*
D02*
G37*
G36*
X778010Y161750D02*
X771990D01*
X766043Y160808D01*
X760317Y158948D01*
X754953Y156214D01*
X750082Y152676D01*
X745825Y148418D01*
X742286Y143547D01*
X739552Y138183D01*
X737692Y132457D01*
X736750Y126510D01*
Y120490D01*
X737692Y114543D01*
X739552Y108817D01*
X742286Y103453D01*
X745825Y98582D01*
X750082Y94325D01*
X754953Y90786D01*
X760317Y88052D01*
X766043Y86192D01*
X771990Y85250D01*
X778010D01*
X783957Y86192D01*
X789683Y88052D01*
X795047Y90786D01*
X799918Y94325D01*
X804175Y98582D01*
X807714Y103453D01*
X810448Y108817D01*
X811122Y110893D01*
X812392Y110692D01*
Y62608D01*
X78636D01*
X72608Y68636D01*
Y125000D01*
X72181Y127146D01*
X70965Y128965D01*
X48479Y151452D01*
X48087Y152399D01*
X46399Y154087D01*
X44194Y155000D01*
X41807D01*
X39601Y154087D01*
X37913Y152399D01*
X37000Y150194D01*
Y147807D01*
X37913Y145601D01*
X39601Y143913D01*
X40548Y143521D01*
X41020Y143049D01*
X40722Y141551D01*
X39601Y141087D01*
X37913Y139399D01*
X37000Y137193D01*
Y134806D01*
X37913Y132601D01*
X39601Y130913D01*
X40548Y130521D01*
X41020Y130049D01*
X40722Y128551D01*
X39601Y128087D01*
X37913Y126399D01*
X37000Y124193D01*
Y121806D01*
X37913Y119601D01*
X39601Y117914D01*
X39647Y117894D01*
Y116520D01*
X38601Y116087D01*
X36913Y114399D01*
X36000Y112193D01*
Y109806D01*
X36392Y108860D01*
Y67363D01*
X35122Y67111D01*
X34697Y68138D01*
X33138Y69697D01*
X31270Y70470D01*
Y65000D01*
Y59530D01*
X33138Y60303D01*
X34697Y61862D01*
X35122Y62889D01*
X36392Y62637D01*
Y57000D01*
X36819Y54854D01*
X38035Y53035D01*
X62035Y29035D01*
X63854Y27819D01*
X66000Y27392D01*
X833627D01*
X835773Y27819D01*
X837593Y29035D01*
X846465Y37907D01*
X847681Y39727D01*
X848108Y41873D01*
Y108860D01*
X848500Y109806D01*
Y112193D01*
X847587Y114399D01*
X845899Y116087D01*
X845103Y116416D01*
Y117791D01*
X845399Y117914D01*
X847086Y119601D01*
X848000Y121806D01*
Y124193D01*
X847086Y126399D01*
X845399Y128087D01*
X844278Y128551D01*
X843980Y130049D01*
X844452Y130521D01*
X845399Y130913D01*
X847086Y132601D01*
X848000Y134806D01*
Y137193D01*
X847086Y139399D01*
X845399Y141087D01*
X844278Y141551D01*
X843980Y143049D01*
X844452Y143521D01*
X845399Y143913D01*
X847086Y145601D01*
X848000Y147807D01*
Y150194D01*
X847086Y152399D01*
X845399Y154087D01*
X843194Y155000D01*
X840807D01*
X838601Y154087D01*
X836913Y152399D01*
X836521Y151452D01*
X814132Y129062D01*
X813413Y129102D01*
X812819Y129232D01*
X812308Y132457D01*
X810448Y138183D01*
X807714Y143547D01*
X804175Y148418D01*
X799918Y152676D01*
X795047Y156214D01*
X789683Y158948D01*
X783957Y160808D01*
X778010Y161750D01*
D02*
G37*
G36*
X28730Y63730D02*
X24530D01*
X25303Y61862D01*
X26862Y60303D01*
X28730Y59530D01*
Y63730D01*
D02*
G37*
G36*
X910270Y57470D02*
Y53270D01*
X914470D01*
X913697Y55138D01*
X912138Y56697D01*
X910270Y57470D01*
D02*
G37*
G36*
X907730D02*
X905862Y56697D01*
X904303Y55138D01*
X903530Y53270D01*
X907730D01*
Y57470D01*
D02*
G37*
G36*
X914470Y50730D02*
X910270D01*
Y46530D01*
X912138Y47303D01*
X913697Y48862D01*
X914470Y50730D01*
D02*
G37*
G36*
X907730D02*
X903530D01*
X904303Y48862D01*
X905862Y47303D01*
X907730Y46530D01*
Y50730D01*
D02*
G37*
G36*
X882105Y31842D02*
Y27641D01*
X886306D01*
X885532Y29509D01*
X883973Y31068D01*
X882105Y31842D01*
D02*
G37*
G36*
X879565D02*
X877697Y31068D01*
X876139Y29509D01*
X875365Y27641D01*
X879565D01*
Y31842D01*
D02*
G37*
G36*
X886306Y25101D02*
X882105D01*
Y20901D01*
X883973Y21675D01*
X885532Y23233D01*
X886306Y25101D01*
D02*
G37*
G36*
X879565D02*
X875365D01*
X876139Y23233D01*
X877697Y21675D01*
X879565Y20901D01*
Y25101D01*
D02*
G37*
G36*
X851270Y20470D02*
Y16270D01*
X855470D01*
X854697Y18138D01*
X853138Y19697D01*
X851270Y20470D01*
D02*
G37*
G36*
X848730D02*
X846862Y19697D01*
X845303Y18138D01*
X844530Y16270D01*
X848730D01*
Y20470D01*
D02*
G37*
G36*
X821270D02*
Y16270D01*
X825470D01*
X824697Y18138D01*
X823138Y19697D01*
X821270Y20470D01*
D02*
G37*
G36*
X818730D02*
X816862Y19697D01*
X815303Y18138D01*
X814530Y16270D01*
X818730D01*
Y20470D01*
D02*
G37*
G36*
X791270D02*
Y16270D01*
X795470D01*
X794697Y18138D01*
X793138Y19697D01*
X791270Y20470D01*
D02*
G37*
G36*
X788730D02*
X786862Y19697D01*
X785303Y18138D01*
X784530Y16270D01*
X788730D01*
Y20470D01*
D02*
G37*
G36*
X761270D02*
Y16270D01*
X765470D01*
X764697Y18138D01*
X763138Y19697D01*
X761270Y20470D01*
D02*
G37*
G36*
X758730D02*
X756862Y19697D01*
X755303Y18138D01*
X754530Y16270D01*
X758730D01*
Y20470D01*
D02*
G37*
G36*
X731270D02*
Y16270D01*
X735470D01*
X734697Y18138D01*
X733138Y19697D01*
X731270Y20470D01*
D02*
G37*
G36*
X728730D02*
X726862Y19697D01*
X725303Y18138D01*
X724530Y16270D01*
X728730D01*
Y20470D01*
D02*
G37*
G36*
X701270D02*
Y16270D01*
X705470D01*
X704697Y18138D01*
X703138Y19697D01*
X701270Y20470D01*
D02*
G37*
G36*
X698730D02*
X696862Y19697D01*
X695303Y18138D01*
X694530Y16270D01*
X698730D01*
Y20470D01*
D02*
G37*
G36*
X671270D02*
Y16270D01*
X675470D01*
X674697Y18138D01*
X673138Y19697D01*
X671270Y20470D01*
D02*
G37*
G36*
X668730D02*
X666862Y19697D01*
X665303Y18138D01*
X664530Y16270D01*
X668730D01*
Y20470D01*
D02*
G37*
G36*
X641270D02*
Y16270D01*
X645470D01*
X644697Y18138D01*
X643138Y19697D01*
X641270Y20470D01*
D02*
G37*
G36*
X638730D02*
X636862Y19697D01*
X635303Y18138D01*
X634530Y16270D01*
X638730D01*
Y20470D01*
D02*
G37*
G36*
X611270D02*
Y16270D01*
X615470D01*
X614697Y18138D01*
X613138Y19697D01*
X611270Y20470D01*
D02*
G37*
G36*
X608730D02*
X606862Y19697D01*
X605303Y18138D01*
X604530Y16270D01*
X608730D01*
Y20470D01*
D02*
G37*
G36*
X581270D02*
Y16270D01*
X585470D01*
X584697Y18138D01*
X583138Y19697D01*
X581270Y20470D01*
D02*
G37*
G36*
X578730D02*
X576862Y19697D01*
X575303Y18138D01*
X574530Y16270D01*
X578730D01*
Y20470D01*
D02*
G37*
G36*
X551270D02*
Y16270D01*
X555470D01*
X554697Y18138D01*
X553138Y19697D01*
X551270Y20470D01*
D02*
G37*
G36*
X548730D02*
X546862Y19697D01*
X545303Y18138D01*
X544530Y16270D01*
X548730D01*
Y20470D01*
D02*
G37*
G36*
X521270D02*
Y16270D01*
X525470D01*
X524697Y18138D01*
X523138Y19697D01*
X521270Y20470D01*
D02*
G37*
G36*
X518730D02*
X516862Y19697D01*
X515303Y18138D01*
X514530Y16270D01*
X518730D01*
Y20470D01*
D02*
G37*
G36*
X491270D02*
Y16270D01*
X495470D01*
X494697Y18138D01*
X493138Y19697D01*
X491270Y20470D01*
D02*
G37*
G36*
X488730D02*
X486862Y19697D01*
X485303Y18138D01*
X484530Y16270D01*
X488730D01*
Y20470D01*
D02*
G37*
G36*
X461270D02*
Y16270D01*
X465470D01*
X464697Y18138D01*
X463138Y19697D01*
X461270Y20470D01*
D02*
G37*
G36*
X458730D02*
X456862Y19697D01*
X455303Y18138D01*
X454530Y16270D01*
X458730D01*
Y20470D01*
D02*
G37*
G36*
X431270D02*
Y16270D01*
X435470D01*
X434697Y18138D01*
X433138Y19697D01*
X431270Y20470D01*
D02*
G37*
G36*
X428730D02*
X426862Y19697D01*
X425303Y18138D01*
X424530Y16270D01*
X428730D01*
Y20470D01*
D02*
G37*
G36*
X401270D02*
Y16270D01*
X405470D01*
X404697Y18138D01*
X403138Y19697D01*
X401270Y20470D01*
D02*
G37*
G36*
X398730D02*
X396862Y19697D01*
X395303Y18138D01*
X394530Y16270D01*
X398730D01*
Y20470D01*
D02*
G37*
G36*
X371270D02*
Y16270D01*
X375470D01*
X374697Y18138D01*
X373138Y19697D01*
X371270Y20470D01*
D02*
G37*
G36*
X368730D02*
X366862Y19697D01*
X365303Y18138D01*
X364530Y16270D01*
X368730D01*
Y20470D01*
D02*
G37*
G36*
X341270D02*
Y16270D01*
X345470D01*
X344697Y18138D01*
X343138Y19697D01*
X341270Y20470D01*
D02*
G37*
G36*
X338730D02*
X336862Y19697D01*
X335303Y18138D01*
X334530Y16270D01*
X338730D01*
Y20470D01*
D02*
G37*
G36*
X311270D02*
Y16270D01*
X315470D01*
X314697Y18138D01*
X313138Y19697D01*
X311270Y20470D01*
D02*
G37*
G36*
X308730D02*
X306862Y19697D01*
X305303Y18138D01*
X304530Y16270D01*
X308730D01*
Y20470D01*
D02*
G37*
G36*
X281270D02*
Y16270D01*
X285470D01*
X284697Y18138D01*
X283138Y19697D01*
X281270Y20470D01*
D02*
G37*
G36*
X278730D02*
X276862Y19697D01*
X275303Y18138D01*
X274530Y16270D01*
X278730D01*
Y20470D01*
D02*
G37*
G36*
X251270D02*
Y16270D01*
X255470D01*
X254697Y18138D01*
X253138Y19697D01*
X251270Y20470D01*
D02*
G37*
G36*
X248730D02*
X246862Y19697D01*
X245303Y18138D01*
X244530Y16270D01*
X248730D01*
Y20470D01*
D02*
G37*
G36*
X221270D02*
Y16270D01*
X225470D01*
X224697Y18138D01*
X223138Y19697D01*
X221270Y20470D01*
D02*
G37*
G36*
X218730D02*
X216862Y19697D01*
X215303Y18138D01*
X214530Y16270D01*
X218730D01*
Y20470D01*
D02*
G37*
G36*
X191270D02*
Y16270D01*
X195470D01*
X194697Y18138D01*
X193138Y19697D01*
X191270Y20470D01*
D02*
G37*
G36*
X188730D02*
X186862Y19697D01*
X185303Y18138D01*
X184530Y16270D01*
X188730D01*
Y20470D01*
D02*
G37*
G36*
X161270D02*
Y16270D01*
X165470D01*
X164697Y18138D01*
X163138Y19697D01*
X161270Y20470D01*
D02*
G37*
G36*
X158730D02*
X156862Y19697D01*
X155303Y18138D01*
X154530Y16270D01*
X158730D01*
Y20470D01*
D02*
G37*
G36*
X131270D02*
Y16270D01*
X135470D01*
X134697Y18138D01*
X133138Y19697D01*
X131270Y20470D01*
D02*
G37*
G36*
X128730D02*
X126862Y19697D01*
X125303Y18138D01*
X124530Y16270D01*
X128730D01*
Y20470D01*
D02*
G37*
G36*
X101270D02*
Y16270D01*
X105470D01*
X104697Y18138D01*
X103138Y19697D01*
X101270Y20470D01*
D02*
G37*
G36*
X98730D02*
X96862Y19697D01*
X95303Y18138D01*
X94530Y16270D01*
X98730D01*
Y20470D01*
D02*
G37*
G36*
X855470Y13730D02*
X851270D01*
Y9530D01*
X853138Y10303D01*
X854697Y11862D01*
X855470Y13730D01*
D02*
G37*
G36*
X848730D02*
X844530D01*
X845303Y11862D01*
X846862Y10303D01*
X848730Y9530D01*
Y13730D01*
D02*
G37*
G36*
X825470D02*
X821270D01*
Y9530D01*
X823138Y10303D01*
X824697Y11862D01*
X825470Y13730D01*
D02*
G37*
G36*
X818730D02*
X814530D01*
X815303Y11862D01*
X816862Y10303D01*
X818730Y9530D01*
Y13730D01*
D02*
G37*
G36*
X795470D02*
X791270D01*
Y9530D01*
X793138Y10303D01*
X794697Y11862D01*
X795470Y13730D01*
D02*
G37*
G36*
X788730D02*
X784530D01*
X785303Y11862D01*
X786862Y10303D01*
X788730Y9530D01*
Y13730D01*
D02*
G37*
G36*
X765470D02*
X761270D01*
Y9530D01*
X763138Y10303D01*
X764697Y11862D01*
X765470Y13730D01*
D02*
G37*
G36*
X758730D02*
X754530D01*
X755303Y11862D01*
X756862Y10303D01*
X758730Y9530D01*
Y13730D01*
D02*
G37*
G36*
X735470D02*
X731270D01*
Y9530D01*
X733138Y10303D01*
X734697Y11862D01*
X735470Y13730D01*
D02*
G37*
G36*
X728730D02*
X724530D01*
X725303Y11862D01*
X726862Y10303D01*
X728730Y9530D01*
Y13730D01*
D02*
G37*
G36*
X705470D02*
X701270D01*
Y9530D01*
X703138Y10303D01*
X704697Y11862D01*
X705470Y13730D01*
D02*
G37*
G36*
X698730D02*
X694530D01*
X695303Y11862D01*
X696862Y10303D01*
X698730Y9530D01*
Y13730D01*
D02*
G37*
G36*
X675470D02*
X671270D01*
Y9530D01*
X673138Y10303D01*
X674697Y11862D01*
X675470Y13730D01*
D02*
G37*
G36*
X668730D02*
X664530D01*
X665303Y11862D01*
X666862Y10303D01*
X668730Y9530D01*
Y13730D01*
D02*
G37*
G36*
X645470D02*
X641270D01*
Y9530D01*
X643138Y10303D01*
X644697Y11862D01*
X645470Y13730D01*
D02*
G37*
G36*
X638730D02*
X634530D01*
X635303Y11862D01*
X636862Y10303D01*
X638730Y9530D01*
Y13730D01*
D02*
G37*
G36*
X615470D02*
X611270D01*
Y9530D01*
X613138Y10303D01*
X614697Y11862D01*
X615470Y13730D01*
D02*
G37*
G36*
X608730D02*
X604530D01*
X605303Y11862D01*
X606862Y10303D01*
X608730Y9530D01*
Y13730D01*
D02*
G37*
G36*
X585470D02*
X581270D01*
Y9530D01*
X583138Y10303D01*
X584697Y11862D01*
X585470Y13730D01*
D02*
G37*
G36*
X578730D02*
X574530D01*
X575303Y11862D01*
X576862Y10303D01*
X578730Y9530D01*
Y13730D01*
D02*
G37*
G36*
X555470D02*
X551270D01*
Y9530D01*
X553138Y10303D01*
X554697Y11862D01*
X555470Y13730D01*
D02*
G37*
G36*
X548730D02*
X544530D01*
X545303Y11862D01*
X546862Y10303D01*
X548730Y9530D01*
Y13730D01*
D02*
G37*
G36*
X525470D02*
X521270D01*
Y9530D01*
X523138Y10303D01*
X524697Y11862D01*
X525470Y13730D01*
D02*
G37*
G36*
X518730D02*
X514530D01*
X515303Y11862D01*
X516862Y10303D01*
X518730Y9530D01*
Y13730D01*
D02*
G37*
G36*
X495470D02*
X491270D01*
Y9530D01*
X493138Y10303D01*
X494697Y11862D01*
X495470Y13730D01*
D02*
G37*
G36*
X488730D02*
X484530D01*
X485303Y11862D01*
X486862Y10303D01*
X488730Y9530D01*
Y13730D01*
D02*
G37*
G36*
X465470D02*
X461270D01*
Y9530D01*
X463138Y10303D01*
X464697Y11862D01*
X465470Y13730D01*
D02*
G37*
G36*
X458730D02*
X454530D01*
X455303Y11862D01*
X456862Y10303D01*
X458730Y9530D01*
Y13730D01*
D02*
G37*
G36*
X435470D02*
X431270D01*
Y9530D01*
X433138Y10303D01*
X434697Y11862D01*
X435470Y13730D01*
D02*
G37*
G36*
X428730D02*
X424530D01*
X425303Y11862D01*
X426862Y10303D01*
X428730Y9530D01*
Y13730D01*
D02*
G37*
G36*
X405470D02*
X401270D01*
Y9530D01*
X403138Y10303D01*
X404697Y11862D01*
X405470Y13730D01*
D02*
G37*
G36*
X398730D02*
X394530D01*
X395303Y11862D01*
X396862Y10303D01*
X398730Y9530D01*
Y13730D01*
D02*
G37*
G36*
X375470D02*
X371270D01*
Y9530D01*
X373138Y10303D01*
X374697Y11862D01*
X375470Y13730D01*
D02*
G37*
G36*
X368730D02*
X364530D01*
X365303Y11862D01*
X366862Y10303D01*
X368730Y9530D01*
Y13730D01*
D02*
G37*
G36*
X345470D02*
X341270D01*
Y9530D01*
X343138Y10303D01*
X344697Y11862D01*
X345470Y13730D01*
D02*
G37*
G36*
X338730D02*
X334530D01*
X335303Y11862D01*
X336862Y10303D01*
X338730Y9530D01*
Y13730D01*
D02*
G37*
G36*
X315470D02*
X311270D01*
Y9530D01*
X313138Y10303D01*
X314697Y11862D01*
X315470Y13730D01*
D02*
G37*
G36*
X308730D02*
X304530D01*
X305303Y11862D01*
X306862Y10303D01*
X308730Y9530D01*
Y13730D01*
D02*
G37*
G36*
X285470D02*
X281270D01*
Y9530D01*
X283138Y10303D01*
X284697Y11862D01*
X285470Y13730D01*
D02*
G37*
G36*
X278730D02*
X274530D01*
X275303Y11862D01*
X276862Y10303D01*
X278730Y9530D01*
Y13730D01*
D02*
G37*
G36*
X255470D02*
X251270D01*
Y9530D01*
X253138Y10303D01*
X254697Y11862D01*
X255470Y13730D01*
D02*
G37*
G36*
X248730D02*
X244530D01*
X245303Y11862D01*
X246862Y10303D01*
X248730Y9530D01*
Y13730D01*
D02*
G37*
G36*
X225470D02*
X221270D01*
Y9530D01*
X223138Y10303D01*
X224697Y11862D01*
X225470Y13730D01*
D02*
G37*
G36*
X218730D02*
X214530D01*
X215303Y11862D01*
X216862Y10303D01*
X218730Y9530D01*
Y13730D01*
D02*
G37*
G36*
X195470D02*
X191270D01*
Y9530D01*
X193138Y10303D01*
X194697Y11862D01*
X195470Y13730D01*
D02*
G37*
G36*
X188730D02*
X184530D01*
X185303Y11862D01*
X186862Y10303D01*
X188730Y9530D01*
Y13730D01*
D02*
G37*
G36*
X165470D02*
X161270D01*
Y9530D01*
X163138Y10303D01*
X164697Y11862D01*
X165470Y13730D01*
D02*
G37*
G36*
X158730D02*
X154530D01*
X155303Y11862D01*
X156862Y10303D01*
X158730Y9530D01*
Y13730D01*
D02*
G37*
G36*
X135470D02*
X131270D01*
Y9530D01*
X133138Y10303D01*
X134697Y11862D01*
X135470Y13730D01*
D02*
G37*
G36*
X128730D02*
X124530D01*
X125303Y11862D01*
X126862Y10303D01*
X128730Y9530D01*
Y13730D01*
D02*
G37*
G36*
X105470D02*
X101270D01*
Y9530D01*
X103138Y10303D01*
X104697Y11862D01*
X105470Y13730D01*
D02*
G37*
G36*
X98730D02*
X94530D01*
X95303Y11862D01*
X96862Y10303D01*
X98730Y9530D01*
Y13730D01*
D02*
G37*
%LPD*%
D15*
X123000Y128000D02*
Y143595D01*
X175405Y196000D01*
X115000Y146909D02*
X172091Y204000D01*
X106000Y111000D02*
X123000Y128000D01*
X115000Y132021D02*
Y146909D01*
X105990Y123010D02*
X115000Y132021D01*
X889000Y127000D02*
X905500Y110500D01*
X906000Y136021D02*
Y189686D01*
Y136021D02*
X906010Y136010D01*
X897086Y132914D02*
Y186914D01*
Y132914D02*
X906000Y124000D01*
X889000Y127000D02*
Y183686D01*
X880000Y204000D02*
X897086Y186914D01*
X876686Y196000D02*
X889000Y183686D01*
X42000Y57000D02*
X66000Y33000D01*
X42000Y57000D02*
Y111000D01*
X43000Y123000D02*
X43021D01*
X67000Y66314D02*
X76314Y57000D01*
X59000Y63000D02*
X73000Y49000D01*
X51000Y59686D02*
X69686Y41000D01*
X43000Y149000D02*
X67000Y125000D01*
X59000Y63000D02*
Y120000D01*
X43021Y123000D02*
X51000Y115021D01*
X43000Y136000D02*
X59000Y120000D01*
X73000Y49000D02*
X73000Y49000D01*
X67000Y66314D02*
Y125000D01*
X51000Y59686D02*
Y115021D01*
X818000Y59929D02*
Y125000D01*
X842000Y149000D01*
X73000Y49000D02*
X823071D01*
X826000Y51929D02*
Y120000D01*
X823071Y49000D02*
X826000Y51929D01*
Y120000D02*
X842000Y136000D01*
X833627Y33000D02*
X842500Y41873D01*
Y111000D01*
X834000Y44686D02*
Y115000D01*
X842000Y123000D01*
X106000Y149222D02*
X111875Y155098D01*
Y155098D01*
X164686Y220000D02*
X165000D01*
X103843Y159157D02*
X164686Y220000D01*
X111875Y155098D02*
X168778Y212000D01*
X883686D01*
X172091Y204000D02*
X880000D01*
X175405Y196000D02*
X876686Y196000D01*
X106000Y136000D02*
Y149222D01*
X830314Y41000D02*
X834000Y44686D01*
X815071Y57000D02*
X818000Y59929D01*
X66000Y33000D02*
X833627D01*
X69686Y41000D02*
X830314Y41000D01*
X76314Y57000D02*
X815071D01*
X887000Y220000D02*
X918000Y189000D01*
X883686Y212000D02*
X906000Y189686D01*
X918000Y159000D02*
Y189000D01*
X165000Y220000D02*
X887000Y220000D01*
D21*
X575000Y123500D02*
D03*
X365000D02*
D03*
X165000D02*
D03*
X775000D02*
D03*
D22*
X874000Y165000D02*
D03*
X820000Y145000D02*
D03*
X790486Y168487D02*
D03*
X820000Y165000D02*
D03*
X850000D02*
D03*
X845000Y231000D02*
D03*
X929530Y83730D02*
D03*
X929727Y172948D02*
D03*
X30000Y65000D02*
D03*
X170000Y175000D02*
D03*
X290000D02*
D03*
X315000D02*
D03*
X365000D02*
D03*
X215000D02*
D03*
X265000D02*
D03*
X190000D02*
D03*
X390000D02*
D03*
X215000Y150000D02*
D03*
X315000D02*
D03*
X290000D02*
D03*
X240000D02*
D03*
X265000D02*
D03*
Y125000D02*
D03*
X240000D02*
D03*
X290000D02*
D03*
X315000D02*
D03*
X215000D02*
D03*
X265000Y100000D02*
D03*
X240000D02*
D03*
X290000D02*
D03*
X315000D02*
D03*
X215000D02*
D03*
X420000D02*
D03*
X520000D02*
D03*
X495000D02*
D03*
X445000D02*
D03*
X470000D02*
D03*
X420000Y125000D02*
D03*
X520000D02*
D03*
X495000D02*
D03*
X445000D02*
D03*
X470000D02*
D03*
X745000Y180000D02*
D03*
X95000Y230000D02*
D03*
X125000Y234000D02*
D03*
X155000D02*
D03*
X815000D02*
D03*
X245000D02*
D03*
X215000D02*
D03*
X185000D02*
D03*
X335000D02*
D03*
X305000D02*
D03*
X275000D02*
D03*
X425000D02*
D03*
X395000D02*
D03*
X365000D02*
D03*
X515000D02*
D03*
X485000D02*
D03*
X455000D02*
D03*
X605000D02*
D03*
X575000D02*
D03*
X545000D02*
D03*
X695000D02*
D03*
X665000D02*
D03*
X635000D02*
D03*
X785000D02*
D03*
X755000D02*
D03*
X725000D02*
D03*
X720000Y150000D02*
D03*
X630000D02*
D03*
X660000D02*
D03*
X690000D02*
D03*
Y125000D02*
D03*
X660000D02*
D03*
X630000D02*
D03*
X720000D02*
D03*
X735000Y100000D02*
D03*
X799530Y75000D02*
D03*
X595000D02*
D03*
X565000D02*
D03*
X685000D02*
D03*
X655000D02*
D03*
X625000D02*
D03*
X775000D02*
D03*
X745000D02*
D03*
X715000D02*
D03*
X924530Y71270D02*
D03*
X909000Y52000D02*
D03*
X850000Y15000D02*
D03*
X730000D02*
D03*
X760000D02*
D03*
X790000D02*
D03*
X640000D02*
D03*
X670000D02*
D03*
X700000D02*
D03*
X550000D02*
D03*
X580000D02*
D03*
X610000D02*
D03*
X460000D02*
D03*
X490000D02*
D03*
X520000D02*
D03*
X370000D02*
D03*
X400000D02*
D03*
X430000D02*
D03*
X280000D02*
D03*
X310000D02*
D03*
X340000D02*
D03*
X190000D02*
D03*
X220000D02*
D03*
X250000D02*
D03*
X121270Y108730D02*
D03*
X111000Y94000D02*
D03*
X63839Y148850D02*
D03*
X645000Y100000D02*
D03*
X615000D02*
D03*
X675000D02*
D03*
X705000D02*
D03*
X904530Y71270D02*
D03*
X912000Y83000D02*
D03*
X865000Y180000D02*
D03*
X835000D02*
D03*
X805000D02*
D03*
X775000D02*
D03*
X760994Y168623D02*
D03*
X470000Y150000D02*
D03*
X445000D02*
D03*
X495000D02*
D03*
X520000D02*
D03*
X420000D02*
D03*
X340000Y175000D02*
D03*
X240000D02*
D03*
X880835Y26371D02*
D03*
X820000Y15000D02*
D03*
X160000D02*
D03*
X130000D02*
D03*
X100000D02*
D03*
X129000Y92000D02*
D03*
X105000Y215000D02*
D03*
X130000D02*
D03*
X105000Y195000D02*
D03*
X45000D02*
D03*
X75000Y215000D02*
D03*
X80000Y170000D02*
D03*
X75000Y195000D02*
D03*
X50000Y170000D02*
D03*
X23000Y85000D02*
D03*
X25000Y170000D02*
D03*
X906010Y136010D02*
D03*
X918000Y159000D02*
D03*
X906000Y124000D02*
D03*
Y111000D02*
D03*
X42000D02*
D03*
X842000Y149000D02*
D03*
Y136000D02*
D03*
X842500Y111000D02*
D03*
X842000Y123000D02*
D03*
X105990Y123010D02*
D03*
X103843Y159157D02*
D03*
X106000Y136000D02*
D03*
Y111000D02*
D03*
X43000Y123000D02*
D03*
Y136000D02*
D03*
Y149000D02*
D03*
M02*
