G04*
G04 #@! TF.GenerationSoftware,Altium Limited,Altium Designer,23.9.2 (47)*
G04*
G04 Layer_Physical_Order=2*
G04 Layer_Color=16711680*
%FSLAX44Y44*%
%MOMM*%
G71*
G04*
G04 #@! TF.SameCoordinates,6D1C5E7F-016E-490A-A275-E21BF45CAEAA*
G04*
G04*
G04 #@! TF.FilePolarity,Positive*
G04*
G01*
G75*
%ADD21C,7.0500*%
%ADD22C,1.2700*%
G36*
X883491Y241000D02*
X883492Y241000D01*
X888500Y240760D01*
X898439Y239433D01*
X908231Y237269D01*
X917803Y234282D01*
X927089Y230495D01*
X936020Y225935D01*
X944532Y220635D01*
X952565Y214632D01*
X960060Y207970D01*
X966963Y200697D01*
X973226Y192865D01*
X978802Y184531D01*
X983652Y175754D01*
X987741Y166598D01*
X991039Y157128D01*
X993522Y147412D01*
X995174Y137522D01*
X995981Y127526D01*
X995939Y117499D01*
X995047Y107511D01*
X993312Y97634D01*
X990746Y87940D01*
X987367Y78499D01*
X983201Y69377D01*
X978277Y60642D01*
X972630Y52355D01*
X966302Y44576D01*
X959337Y37362D01*
X951786Y30764D01*
X943702Y24829D01*
X935145Y19601D01*
X926176Y15117D01*
X916859Y11409D01*
X907261Y8504D01*
X897452Y6423D01*
X887502Y5180D01*
X882492Y4982D01*
X121726D01*
X116708Y5002D01*
X106712Y5892D01*
X96827Y7626D01*
X87125Y10191D01*
X77675Y13569D01*
X68545Y17736D01*
X59802Y22661D01*
X51507Y28310D01*
X43720Y34641D01*
X36498Y41610D01*
X29893Y49165D01*
X23951Y57253D01*
X18717Y65815D01*
X14226Y74790D01*
X10513Y84113D01*
X7603Y93717D01*
X5517Y103534D01*
X4270Y113492D01*
X3872Y123519D01*
X4325Y133545D01*
X5626Y143496D01*
X7766Y153301D01*
X10728Y162889D01*
X14493Y172192D01*
X19032Y181142D01*
X24314Y189675D01*
X30299Y197731D01*
X36946Y205249D01*
X44206Y212178D01*
X52027Y218467D01*
X60353Y224070D01*
X69123Y228947D01*
X78275Y233064D01*
X87744Y236390D01*
X97460Y238902D01*
X107354Y240582D01*
X112354Y241000D01*
X883491Y241000D01*
X883491Y241000D01*
D02*
G37*
%LPC*%
G36*
X225974Y158790D02*
X224270D01*
Y122270D01*
X260790D01*
Y123974D01*
X259860Y129849D01*
X258021Y135506D01*
X255321Y140806D01*
X251825Y145618D01*
X247619Y149825D01*
X242806Y153321D01*
X237506Y156021D01*
X231849Y157859D01*
X225974Y158790D01*
D02*
G37*
G36*
X221730D02*
X220026D01*
X214151Y157859D01*
X208494Y156021D01*
X203194Y153321D01*
X198382Y149825D01*
X194175Y145618D01*
X190679Y140806D01*
X187979Y135506D01*
X186140Y129849D01*
X185210Y123974D01*
Y122270D01*
X221730D01*
Y158790D01*
D02*
G37*
G36*
X64270Y93863D02*
Y86270D01*
X71863D01*
X71284Y88431D01*
X70114Y90459D01*
X68459Y92114D01*
X66431Y93284D01*
X64270Y93863D01*
D02*
G37*
G36*
X61730D02*
X59569Y93284D01*
X57541Y92114D01*
X55886Y90459D01*
X54716Y88431D01*
X54137Y86270D01*
X61730D01*
Y93863D01*
D02*
G37*
G36*
X879270Y91863D02*
Y84270D01*
X886863D01*
X886284Y86431D01*
X885114Y88459D01*
X883459Y90114D01*
X881431Y91284D01*
X879270Y91863D01*
D02*
G37*
G36*
X876730D02*
X874569Y91284D01*
X872541Y90114D01*
X870886Y88459D01*
X869716Y86431D01*
X869137Y84270D01*
X876730D01*
Y91863D01*
D02*
G37*
G36*
X260790Y119730D02*
X224270D01*
Y83210D01*
X225974D01*
X231849Y84141D01*
X237506Y85979D01*
X242806Y88679D01*
X247619Y92175D01*
X251825Y96381D01*
X255321Y101194D01*
X258021Y106494D01*
X259860Y112151D01*
X260790Y118026D01*
Y119730D01*
D02*
G37*
G36*
X221730D02*
X185210D01*
Y118026D01*
X186140Y112151D01*
X187979Y106494D01*
X190679Y101194D01*
X194175Y96381D01*
X198382Y92175D01*
X203194Y88679D01*
X208494Y85979D01*
X214151Y84141D01*
X220026Y83210D01*
X221730D01*
Y119730D01*
D02*
G37*
G36*
X781010Y159250D02*
X774990D01*
X769043Y158308D01*
X763317Y156448D01*
X757953Y153714D01*
X753082Y150176D01*
X748824Y145918D01*
X745286Y141047D01*
X742552Y135683D01*
X740692Y129957D01*
X739750Y124010D01*
Y117990D01*
X740692Y112043D01*
X742552Y106317D01*
X745286Y100953D01*
X748824Y96082D01*
X753082Y91825D01*
X757953Y88286D01*
X763317Y85552D01*
X769043Y83692D01*
X774990Y82750D01*
X781010D01*
X786957Y83692D01*
X792683Y85552D01*
X798047Y88286D01*
X802918Y91825D01*
X807175Y96082D01*
X810714Y100953D01*
X813448Y106317D01*
X815308Y112043D01*
X816250Y117990D01*
Y124010D01*
X815308Y129957D01*
X813448Y135683D01*
X810714Y141047D01*
X807175Y145918D01*
X802918Y150176D01*
X798047Y153714D01*
X792683Y156448D01*
X786957Y158308D01*
X781010Y159250D01*
D02*
G37*
G36*
X401010D02*
X394990D01*
X389043Y158308D01*
X383317Y156448D01*
X377953Y153714D01*
X373082Y150176D01*
X368825Y145918D01*
X365286Y141047D01*
X362552Y135683D01*
X360692Y129957D01*
X359750Y124010D01*
Y117990D01*
X360692Y112043D01*
X362552Y106317D01*
X365286Y100953D01*
X368825Y96082D01*
X373082Y91825D01*
X377953Y88286D01*
X383317Y85552D01*
X389043Y83692D01*
X394990Y82750D01*
X401010D01*
X406957Y83692D01*
X412683Y85552D01*
X418047Y88286D01*
X422918Y91825D01*
X427175Y96082D01*
X430714Y100953D01*
X433448Y106317D01*
X435308Y112043D01*
X436250Y117990D01*
Y124010D01*
X435308Y129957D01*
X433448Y135683D01*
X430714Y141047D01*
X427175Y145918D01*
X422918Y150176D01*
X418047Y153714D01*
X412683Y156448D01*
X406957Y158308D01*
X401010Y159250D01*
D02*
G37*
G36*
X610010Y155250D02*
X603990D01*
X598043Y154308D01*
X592317Y152448D01*
X586953Y149714D01*
X582082Y146175D01*
X577825Y141918D01*
X574286Y137047D01*
X571552Y131683D01*
X569692Y125957D01*
X568750Y120010D01*
Y113990D01*
X569692Y108043D01*
X571552Y102317D01*
X574286Y96953D01*
X577825Y92082D01*
X582082Y87824D01*
X586953Y84286D01*
X592317Y81552D01*
X598043Y79692D01*
X603990Y78750D01*
X610010D01*
X615957Y79692D01*
X621683Y81552D01*
X627047Y84286D01*
X631918Y87824D01*
X636175Y92082D01*
X639714Y96953D01*
X642448Y102317D01*
X644308Y108043D01*
X645250Y113990D01*
Y120010D01*
X644308Y125957D01*
X642448Y131683D01*
X639714Y137047D01*
X636175Y141918D01*
X631918Y146175D01*
X627047Y149714D01*
X621683Y152448D01*
X615957Y154308D01*
X610010Y155250D01*
D02*
G37*
G36*
X71863Y83730D02*
X64270D01*
Y76137D01*
X66431Y76716D01*
X68459Y77886D01*
X70114Y79541D01*
X71284Y81569D01*
X71863Y83730D01*
D02*
G37*
G36*
X61730D02*
X54137D01*
X54716Y81569D01*
X55886Y79541D01*
X57541Y77886D01*
X59569Y76716D01*
X61730Y76137D01*
Y83730D01*
D02*
G37*
G36*
X886863Y81730D02*
X879270D01*
Y74137D01*
X881431Y74716D01*
X883459Y75886D01*
X885114Y77541D01*
X886284Y79569D01*
X886863Y81730D01*
D02*
G37*
G36*
X876730D02*
X869137D01*
X869716Y79569D01*
X870886Y77541D01*
X872541Y75886D01*
X874569Y74716D01*
X876730Y74137D01*
Y81730D01*
D02*
G37*
%LPD*%
D21*
X223000Y121000D02*
D03*
X398000Y121000D02*
D03*
X778000D02*
D03*
X607000Y117000D02*
D03*
D22*
X63000Y85000D02*
D03*
X878000Y83000D02*
D03*
M02*
