M48
;Layer_Color=9474304
;FILE_FORMAT=4:4
METRIC,LZ
;TYPE=PLATED
T01F00S00C0.3000
T02F00S00C4.3500
%
T01
X0085Y00015
X00880835Y00026371
X00909Y00052
X0090453Y0007127
X00912Y00083
X0092953Y0008373
X0092453Y0007127
X00906Y00111
Y00124
X0090601Y0013601
X00918Y00159
X00929727Y00172948
X00874Y00165
X0085
X00842Y00149
Y00136
Y00123
X008425Y00111
X00865Y0018
X00845Y00231
X00815Y00234
X00785
X00755
X00725
X00695
X00665
X00635
X00605
X00575
X00545
X00515
X00485
X00455
X00445Y0015
Y00125
Y001
X0047
X00495
X0052
Y00125
X00495
X0047
Y0015
X00495
X0052
X0063
Y00125
X0066
Y0015
X0069
Y00125
X0072
Y0015
X00745Y0018
X00760994Y00168623
X00775Y0018
X00790486Y00168487
X00805Y0018
X0082Y00165
Y00145
X00835Y0018
X0079953Y00075
X00775
X00745
X00715
X00685
X00655
X00625
X00595
X00565
X0055Y00015
X0058
X0061
X0064
X0067
X007
X0073
X0076
X0079
X0082
X00735Y001
X00705
X00675
X00645
X00615
X0052Y00015
X0049
X0046
X0043
X004
X0037
X0034
X0031
X0028
X0025
X0022
X0019
X0016
X0013
X001
X00111Y00094
X00129Y00092
X0012127Y0010873
X00106Y00111
X0010599Y0012301
X00106Y00136
X00103843Y00159157
X0008Y0017
X00075Y00195
Y00215
X00105
Y00195
X00095Y0023
X00125Y00234
X0013Y00215
X00155Y00234
X00185
X00215
X00245
X00275
X00305
X00335
X00365
X00395
X00425
X0042Y0015
Y00125
Y001
X0039Y00175
X00365
X0034
X00315
X0029
X00265
Y0015
X0029
X00315
Y00125
X0029
X00265
X0024
Y0015
X00215
Y00175
X0019
X0017
X0024
X00215Y00125
Y001
X0024
X00265
X0029
X00315
X00063839Y0014885
X0005Y0017
X00025
X00043Y00149
Y00136
Y00123
X00042Y00111
X00023Y00085
X0003Y00065
X00045Y00195
T02
X00575Y001235
X00775
X00365
X00165
M30
